<?xml version="1.0" encoding="UTF-8"?>
<svg id="Layer_1" xmlns="http://www.w3.org/2000/svg" version="1.1" viewBox="0 0 396 396">
  <!-- Generator: Adobe Illustrator 29.2.1, SVG Export Plug-In . SVG Version: 2.1.0 Build 116)  -->
  <defs>
    <style>
      .st0 {
        fill: #40ceff;
      }

      .st1 {
        fill: #01003d;
      }

      .st2 {
        fill: #3effc3;
      }
    </style>
  </defs>
  <path class="st2" d="M293.1,93c12-1.3,13.3,16.3,2.4,17.6-12,1.4-13.6-16.4-2.4-17.6Z"/>
  <path class="st2" d="M101.6,281.8c12-1.3,13.3,16.3,2.4,17.6s-13.6-16.4-2.4-17.6Z"/>
  <path class="st2" d="M293.1,281.8c12-1.3,13.3,16.3,2.4,17.6s-13.6-16.4-2.4-17.6Z"/>
  <path class="st2" d="M104.9,93c12-1.3,13.3,16.3,2.4,17.6-12,1.4-13.6-16.4-2.4-17.6Z"/>
  <path class="st0" d="M196.8,59.4c13.8-2.8,15.1,16.1,4,17.2-12.3,1.2-12.7-15.4-4-17.2Z"/>
  <path class="st0" d="M196.8,319.6c13.8-2.8,15.1,16.1,4,17.2s-12.7-15.4-4-17.2Z"/>
  <path class="st0" d="M63.6,189.5c13.8-2.8,15.1,16.1,4,17.2-12.3,1.2-12.7-15.4-4-17.2Z"/>
  <path class="st0" d="M326.9,189.5c13.8-2.8,15.1,16.1,4,17.2s-12.7-15.4-4-17.2Z"/>
  <path class="st1" d="M240.4,99.1c4.6-4.4,10.1-8.1,16.3-9.9s13.4-3.2,17.6-.3c6.9,4.8,4.1,15.1-4.1,16.2s-12,.9-18,7.4c-21.3,23.2,14.9,54.8,35.1,30.5,5.2-6.3,3.9-9.6,5.3-16.5,1.9-9.3,15.5-9.2,17.4-.5,2.1,9.9-4.2,24.2-11.5,31.1,9.3,0,18.6,3.1,25.7,9.2,4.1,3.5,7.2,7.4,4.6,13.2s-3.5,4.2-5.6,4.5c-7.5,1.2-8.8-3.9-14.5-6.8-11.9-6-26.8-.5-31.9,11.7-8.9,21.2,15.3,41.2,34.5,28.4,4.4-3,4.8-6.2,11.4-5.3,6.4.9,9,9,5.4,13.9-5.9,8-19.2,13-29,13-.2.8.2.8.5,1.3,1.5,2.2,3.6,3.9,5.2,6.5,3.4,5.7,6.4,15.8,5.5,22.4-1.3,9.6-16.2,10.3-17.7-.5-1.1-8.3-1.2-12.8-8.2-18.8-26-21.9-56,22.6-25.8,38.5,5,2.6,7.8,1.7,12.6,2.7,9.5,1.9,9.1,15.5.5,17.4-10,2.1-24.2-4.2-31.1-11.5.3,9.4-5.2,24.5-13.3,29.7-4.9,3.2-13,.7-13.7-5.6s4-8.5,6.8-14.1c6-11.9.5-26.8-11.7-31.9-21.2-8.9-41.2,15.3-28.4,34.5,1.7,2.6,4.9,4.5,5.3,7.9.7,6.2-2.9,10.8-9.4,10.5s-5.6-2.3-7.9-4.8c-6.4-7.1-9.6-16.7-9.7-26.2-4.5,4.3-9.9,8-15.9,9.8s-13.4,3.1-17.4.8c-7.5-4.4-5-15.5,3.5-16.7,8.2-1.1,12.3-1,18.3-7.7,20.9-23.4-15.6-54.4-35.4-30.3-5.2,6.4-3.9,9.5-5.3,16.5-1.9,9.3-15.5,9.2-17.4.5s4.2-24.2,11.5-31.1c-9.4.3-24.5-5.2-29.7-13.3-3.2-4.9-.7-13,5.6-13.7,6.9-.8,7.4,2.8,12.1,5.7,12.1,7.5,28.3,2.5,33.9-10.6,8.9-21.2-15.3-41.2-34.5-28.4-2.6,1.7-4.5,4.9-7.9,5.3-6.2.7-10.8-2.9-10.5-9.4s2.3-5.6,4.8-7.9c7.1-6.4,16.7-9.6,26.2-9.7-4.3-4.5-8-9.9-9.8-15.9s-3.1-13.4-.8-17.4c4.4-7.5,15.5-5,16.7,3.5,1.1,8.2,1,12.2,7.7,18.3,23.1,20.9,54.6-15.4,30.3-35.3-6.4-5.2-9.5-3.9-16.6-5.3-9.3-1.9-9.2-15.5-.5-17.4,8.7-1.8,21,3.1,27.7,8.4s2.8,3.2,3.3,2.5c0-9.5,4.9-22.9,12.7-28.8,7.3-5.4,16.8,1.2,13.9,10.3-.7,2-3.8,4.6-5.1,6.6-7.9,12.2-2.7,29,10.8,34.3,21.2,8.4,40.7-15.6,28-34.6-3-4.4-6.2-4.8-5.3-11.4.9-6.6,9.1-9,14.2-5.1,8.1,6.2,12.8,19.3,12.7,29.3ZM228.2,129.1c-13.5,12.5-34.5,15.1-50.3,5.3-2.6-1.6-4.6-3.8-7.2-5.3,0,21.7-18.6,40.2-40.2,40.2,12.6,13.6,15.1,34.4,5.3,50.3-1.6,2.7-3.7,4.6-5.3,7.2,21.6,0,40.2,18.6,40.2,40.2,13.4-12.5,34.2-15.1,50-5.5,2.8,1.7,4.8,3.8,7.5,5.5,0-21.6,18.6-40.2,40.2-40.2-12.5-13.5-15.1-34.5-5.3-50.3,1.6-2.6,3.8-4.6,5.3-7.2-21.7,0-40.1-18.6-40.2-40.2Z"/>
</svg>