<svg width="302" height="176" viewBox="0 0 302 176" fill="none" xmlns="http://www.w3.org/2000/svg">
<g opacity="0.7" clip-path="url(#clip0_2205_20770)">
<mask id="mask0_2205_20770" style="mask-type:luminance" maskUnits="userSpaceOnUse" x="0" y="0" width="302" height="176">
<path d="M0 0V175.745H301.034V0H0Z" fill="white"/>
</mask>
<g mask="url(#mask0_2205_20770)">
<path opacity="0.99" d="M51.8447 0C80.4822 6.53896e-05 103.689 23.2209 103.689 51.8604C103.689 80.4999 80.4755 103.721 51.8447 103.721C23.2139 103.721 0 80.4999 0 51.8604C4.15146e-05 23.2208 23.2139 0 51.8447 0ZM51.8447 10.9785C29.2694 10.9785 10.9756 29.2782 10.9756 51.8604C10.9756 74.4426 29.2761 92.7422 51.8447 92.7422C74.42 92.7421 92.7139 74.4425 92.7139 51.8604C92.7138 29.2782 74.42 10.9786 51.8447 10.9785Z" fill="white"/>
<path opacity="0.99" d="M117.736 0C146.373 6.73976e-05 169.581 23.2209 169.581 51.8604C169.581 80.4998 146.367 103.721 117.736 103.721C89.105 103.721 65.8911 80.4999 65.8911 51.8604C65.8912 23.2208 89.0983 0 117.736 0ZM117.736 10.9785C95.1605 10.9785 76.8667 29.2782 76.8667 51.8604C76.8667 74.4426 95.1672 92.7422 117.736 92.7422C140.311 92.7421 158.605 74.4425 158.605 51.8604C158.605 29.2782 140.311 10.9786 117.736 10.9785Z" fill="white"/>
<path opacity="0.99" d="M183.634 0C212.265 5.93797e-05 235.478 23.2209 235.479 51.8604C235.479 80.4999 212.265 103.721 183.634 103.721C155.003 103.721 131.789 80.4999 131.789 51.8604C131.789 23.2208 154.996 0 183.634 0ZM183.634 10.9785C161.058 10.9785 142.765 29.2782 142.765 51.8604C142.765 74.4426 161.065 92.7422 183.634 92.7422C206.209 92.7421 224.503 74.4425 224.503 51.8604C224.503 29.2782 206.209 10.9786 183.634 10.9785Z" fill="white"/>
<path opacity="0.99" d="M249.525 0C278.156 0.000105655 301.37 23.2209 301.37 51.8604C301.37 80.4998 278.156 103.721 249.525 103.721C220.894 103.721 197.68 80.4999 197.68 51.8604C197.68 23.2209 220.887 0 249.525 0ZM249.525 10.9785C226.95 10.9785 208.655 29.2782 208.655 51.8604C208.655 74.4426 226.956 92.7422 249.525 92.7422C272.1 92.7421 290.394 74.4425 290.394 51.8604C290.394 29.2783 272.1 10.9786 249.525 10.9785Z" fill="white"/>
<g opacity="0.99">
<path opacity="0.99" d="M212.742 123.534H223.664V174.594H212.742V123.534Z" fill="white"/>
<g opacity="0.99">
<path opacity="0.99" d="M238.059 123.352H248.382V133.012H238.059V123.352Z" fill="white"/>
<path opacity="0.99" d="M238.059 138.343H248.382V174.324H238.059V138.343Z" fill="white"/>
</g>
<path opacity="0.99" d="M156.125 138.311H167.04V174.587H156.125V138.311Z" fill="white"/>
<path opacity="0.99" d="M135.385 174.594L124.463 158.217V138.311H135.385V174.594Z" fill="white"/>
<path opacity="0.99" d="M117.111 174.594H105.497L79.3193 123.305H90.9397L117.111 174.594Z" fill="white"/>
<path opacity="0.99" d="M52.9873 174.594H64.6076L90.7786 123.305H79.165L52.9873 174.594Z" fill="white"/>
<path opacity="0.99" d="M68.4048 163.904V154.963H104.67V163.904H68.4048Z" fill="white"/>
<path opacity="0.99" d="M135.223 161.551C135.223 161.551 139.128 172.718 156.448 163.904V170.782C156.448 170.782 125.203 187.549 124.564 158.217C123.926 128.885 130.277 159.487 130.633 159.434C130.989 159.38 135.217 161.551 135.217 161.551H135.223Z" fill="white"/>
<path opacity="0.99" d="M212.742 163.73C209.408 165.666 205.288 166.903 201.256 166.903C193.191 166.903 188.983 161.928 188.983 156.375C188.983 150.822 193.191 145.847 201.256 145.847C205.282 145.847 209.408 147.084 212.742 149.02V139.776C208.413 138.277 203.91 137.41 199.441 137.41C185.092 137.41 177.612 146.365 177.612 156.375C177.612 166.385 185.092 175.34 199.441 175.34C203.91 175.34 208.413 174.473 212.742 172.974V163.73Z" fill="white"/>
</g>
</g>
</g>
<defs>
<clipPath id="clip0_2205_20770">
<rect width="301.415" height="175.528" fill="white"/>
</clipPath>
</defs>
</svg>
