<svg width="183" height="183" viewBox="0 0 183 183" fill="none" xmlns="http://www.w3.org/2000/svg">
<g opacity="0.7" filter="url(#filter0_d_2205_20785)">
<g opacity="0.99" clip-path="url(#clip0_2205_20785)">
<mask id="mask0_2205_20785" style="mask-type:luminance" maskUnits="userSpaceOnUse" x="3" y="0" width="176" height="176">
<path d="M3.34961 0V175.555H178.905V0H3.34961Z" fill="white"/>
</mask>
<g mask="url(#mask0_2205_20785)">
<path opacity="0.99" d="M91.127 0C139.528 0 178.904 39.3762 178.904 87.7773C178.904 136.179 139.528 175.555 91.127 175.555C42.7258 175.555 3.34961 136.179 3.34961 87.7773C3.34969 39.3762 42.7258 7.89833e-05 91.127 0ZM91.127 4.48535C45.198 4.48543 7.83504 41.8484 7.83496 87.7773C7.83496 133.706 45.1979 171.069 91.127 171.069C137.056 171.069 174.419 133.706 174.419 87.7773C174.419 41.8483 137.056 4.48535 91.127 4.48535Z" fill="white"/>
<g opacity="0.99">
<g opacity="0.99">
<path opacity="0.99" d="M91.1272 46.1343V87.7776H49.4839C49.4839 64.8157 68.1653 46.1343 91.1272 46.1343Z" fill="white"/>
<path opacity="0.99" d="M132.771 87.7778C132.771 110.74 114.084 129.421 91.1274 129.421V87.7778H132.771Z" fill="white"/>
</g>
</g>
<path opacity="0.99" d="M91.1274 41.8159C116.469 41.8162 137.088 62.4357 137.088 87.7778C137.088 113.12 116.469 133.739 91.1274 133.739C65.7854 133.739 45.1658 113.12 45.1655 87.7778C45.1655 62.4356 65.7852 41.8159 91.1274 41.8159ZM91.1274 46.1343C68.1656 46.1343 49.4839 64.816 49.4839 87.7778C49.4841 110.739 68.1657 129.42 91.1274 129.42C114.089 129.42 132.77 110.739 132.77 87.7778C132.77 64.8161 114.089 46.1345 91.1274 46.1343Z" fill="white"/>
<g opacity="0.99">
<path opacity="0.99" d="M32.8262 35.8086C35.5034 32.9209 40.021 32.754 42.9033 35.4473C43.7614 36.2514 44.3771 37.2119 44.7441 38.248C46.9246 37.8001 49.2834 38.3834 51.0322 40.0186L51.2881 40.2705C53.9055 42.9761 53.9717 47.2874 51.373 50.0693L40.9551 61.2324L41.0146 61.2861L37.2412 65.5771L30.4619 59.1973L26.8135 55.7637L23.8066 52.9355L20.3359 49.6699L22.9268 46.502L23.9629 45.3848L32.8262 35.8086ZM47.2217 44.1973C46.4121 43.4309 45.1386 43.468 44.3721 44.2773L43.5352 45.1631C43.4434 45.2764 43.3467 45.3901 43.2441 45.498L34.3271 55.0518L37.2852 57.8096L47.3135 47.0303H47.3086C48.0639 46.2206 48.0203 44.9583 47.2217 44.1973ZM39.0928 39.6299C38.2886 38.8638 37.0096 38.9017 36.2432 39.7109L36.2373 39.7168L27.6553 48.8389L30.5918 51.5752L39.5518 41.8975C39.6597 41.6384 39.7188 41.3681 39.7188 41.0928C39.7187 40.5585 39.5083 40.0238 39.0928 39.6299Z" fill="white"/>
<path opacity="0.99" d="M103.979 14.7307L95.9849 13.9912L90.5008 27.9335L85.0168 13.9912L77.0228 14.7307L76.1699 38.378L81.9293 37.6062L82.4259 20.6304L88.1852 33.6389H90.5008H92.8164L98.5758 20.6304L99.0724 37.6062L104.832 38.378L103.979 14.7307Z" fill="white"/>
<path opacity="0.99" d="M127.011 48.3208L132.063 52.4878L144.532 45.7299L137.92 58.3497L142.103 63.4343L161.918 50.998L158.188 46.5341L144.7 55.7534L150.874 43.3981L147.004 39.6791L134.768 45.908L144.03 32.4623L139.512 28.9106L127.011 48.3208Z" fill="white"/>
</g>
</g>
</g>
</g>
<defs>
<filter id="filter0_d_2205_20785" x="-0.000182867" y="0" width="182.255" height="182.255" filterUnits="userSpaceOnUse" color-interpolation-filters="sRGB">
<feFlood flood-opacity="0" result="BackgroundImageFix"/>
<feColorMatrix in="SourceAlpha" type="matrix" values="0 0 0 0 0 0 0 0 0 0 0 0 0 0 0 0 0 0 127 0" result="hardAlpha"/>
<feOffset dy="3.34979"/>
<feGaussianBlur stdDeviation="1.6749"/>
<feComposite in2="hardAlpha" operator="out"/>
<feColorMatrix type="matrix" values="0 0 0 0 0 0 0 0 0 0 0 0 0 0 0 0 0 0 0.25 0"/>
<feBlend mode="normal" in2="BackgroundImageFix" result="effect1_dropShadow_2205_20785"/>
<feBlend mode="normal" in="SourceGraphic" in2="effect1_dropShadow_2205_20785" result="shape"/>
</filter>
<clipPath id="clip0_2205_20785">
<rect width="175.555" height="175.555" fill="white" transform="translate(3.34961)"/>
</clipPath>
</defs>
</svg>
