<svg width="507" height="183" viewBox="0 0 507 183" fill="none" xmlns="http://www.w3.org/2000/svg">
<g opacity="0.7" filter="url(#filter0_d_2205_20800)">
<g opacity="0.99" clip-path="url(#clip0_2205_20800)">
<mask id="mask0_2205_20800" style="mask-type:luminance" maskUnits="userSpaceOnUse" x="3" y="0" width="500" height="176">
<path d="M3.34961 0V175.555H502.281V0H3.34961Z" fill="white"/>
</mask>
<g mask="url(#mask0_2205_20800)">
<g opacity="0.99">
<path opacity="0.99" d="M388.301 63.3325C392.536 63.3805 396.781 63.265 401.006 63.3706C401.16 63.3706 401.323 63.3992 401.467 63.4663L401.525 63.4575C401.909 63.6304 402.034 63.9474 401.851 64.3892C388.887 84.738 375.634 104.914 363.006 125.474C362.2 126.771 361.451 128.096 360.769 129.459C360.356 130.276 360.039 131.159 359.847 132.052C359.405 134.098 360.644 135.701 362.748 135.903C369.719 136.681 383.279 120.875 388.484 116.083C389.502 115.093 389.915 115.093 390.952 115.996C391.72 116.658 392.479 117.331 393.208 118.042C394.121 118.935 394.169 119.29 393.295 120.26C384.019 130.411 374.761 142.424 360.866 146.092C354.72 147.725 348.161 145.353 346.835 138.612C346.778 138.333 346.72 138.054 346.663 137.766C346.49 136.873 345.404 136.528 344.742 137.142C342.13 139.6 339.259 141.685 336.051 143.289C321.042 150.817 309.133 139.648 311.716 123.957C311.831 123.16 310.967 122.594 310.286 123.016C310.18 123.083 310.065 123.16 309.959 123.227C307.175 125.1 304.101 126.329 300.875 127.212C294.248 129.037 287.306 125.781 285.664 118.761C285.299 117.206 285.259 116.034 284.856 114.402C278.681 123.64 272.9 132.984 266.86 142.299C265.256 144.805 265.4 144.556 262.779 144.556C259.283 144.527 255.778 144.623 252.292 144.527C251.553 144.517 251.024 144.028 251.379 143.211C258.783 131.14 266.37 119.156 273.505 106.912C274.206 105.74 274.725 104.433 275.167 103.127C275.57 101.927 275.666 100.621 274.658 99.6128C273.611 98.5759 272.305 98.7875 271.153 99.2964C261.137 103.627 251.648 117.052 245.157 125.82C238.867 134.78 230.368 143.672 219.017 145.276C209.817 146.803 200.233 141.877 197.429 132.667C197.266 131.659 196.028 131.217 195.317 131.995C192.82 134.626 190.14 137.219 186.971 139.005C186.29 139.255 185.79 139.13 185.252 138.477C184.369 137.411 183.553 136.287 182.804 135.125C182.199 134.184 182.323 133.589 183.159 132.801C184.378 131.659 185.608 130.545 186.866 129.459C190.592 126.271 193.272 122.401 195.039 117.801C200.272 103.473 212.209 91.4122 227.689 89.1938C228.678 89.021 229.715 89.0396 230.723 89.0972C231.933 89.1644 232.788 89.8278 233.21 90.9897C233.489 91.7675 233.778 92.5451 234.056 93.3325C234.671 95.0802 234.526 95.3109 232.865 96.0503C225.096 99.2001 217.817 103.81 213.515 111.243C210.807 115.862 209.049 121.575 210.768 126.857C212.257 131.063 216.022 133.329 220.439 132.744C236.072 129.68 242.343 110.225 238.272 96.2905C237.715 94.2739 238.003 93.4575 239.75 92.3052C240.864 91.5657 242.036 90.9121 243.227 90.3071C245.138 89.3375 246.655 89.8183 247.807 91.6812C250.102 95.3111 250.641 99.2675 251.035 103.445C251.083 103.867 251.197 104.28 251.351 105C257.401 99.3923 262.039 92.2086 269.712 88.6362C272.958 86.9558 276.704 86.2261 280.295 87.0327C285.519 88.3196 286.201 92.5547 286.681 97.1929C286.7 97.2984 286.709 97.404 286.709 97.519C286.748 98.2296 287.651 98.499 288.054 97.9136C292.395 91.9308 299.828 86.7065 307.52 88.4927C312.581 89.7604 316.125 95.0808 314.569 100.631C313.455 104.597 311.197 107.478 307.135 108.668C302.219 110.118 297.495 106.326 297.956 101.361C297.965 101.054 297.964 100.746 297.964 100.401C297.964 99.9303 297.388 99.632 297.042 99.9585C289.072 107.689 291.867 121.94 304.822 116.371C307.511 115.189 309.94 113.585 312.187 111.732C323.375 103.233 333.477 89.2995 348.794 89.4243C354.527 89.5013 360.913 92.766 362.162 98.8062C362.286 99.44 363.093 99.6416 363.497 99.1519C371.054 87.6378 378.66 76.1333 386.092 64.5425C386.544 63.6302 387.303 63.3326 388.301 63.3325ZM354.451 104.79C354.758 100.804 351.598 98.624 347.93 99.0464C345.078 99.3633 342.715 100.823 340.526 102.561C333.324 108.505 327.264 116.822 326.496 126.368C326.38 127.971 326.602 129.498 327.264 130.958C328.33 133.493 331.46 134.126 333.918 133.56C342.782 131.121 350.177 121.364 353.759 113.345C352.156 111.972 352.146 111.963 353.039 109.965C353.788 108.314 354.326 106.604 354.46 104.79H354.451Z" fill="white"/>
<path opacity="0.99" d="M170.953 30.6147C200.857 25.2754 230.771 34.2056 260.378 37.73C280.727 40.4284 301.575 40.2271 321.665 35.7329C322.155 35.6273 322.654 35.4927 323.153 35.4351C324.911 35.2142 326.351 36.2518 326.688 37.9995C327.014 39.6702 326.61 41.264 325.698 42.6274C324.834 43.9142 323.816 45.1633 322.654 46.1812C298.08 65.2242 265.65 51.9043 238.886 45.2974C235.65 44.5099 232.221 45.2014 229.552 47.189C219.747 54.4873 210.057 62.6214 203.796 73.2808C203.441 73.8954 203.902 74.6639 204.612 74.6255C209.779 74.3278 214.945 74.0304 220.111 73.7231C220.284 73.7135 220.448 73.5885 220.727 73.4829C220.544 68.5757 221.197 64.6576 224.913 61.1333C230.224 55.7844 239.693 57.8393 239.021 66.3091C238.483 71.5524 235.121 75.2594 230.319 77.1704C229.926 77.372 229.503 77.5355 228.869 77.814C229.33 78.3613 231.721 80.3964 232.586 81.0112C233.316 81.5298 234.055 82.0395 233.719 83.1343C233.402 84.1712 232.327 85.0838 231.261 85.0454C230.685 85.0262 230.07 84.872 229.552 84.6128C227.382 83.5373 225.393 82.1739 223.828 80.311C223.05 79.3892 222.215 79.0814 221.062 79.187C217.202 79.5327 203.728 80.8096 200.655 81.0688H200.694C198.985 81.2129 197.986 81.9239 197.112 83.3833C184.936 102.954 169.896 130.794 148.414 140.782C132.185 148.637 107.774 143.806 104.394 123.63C101.83 110.455 107.716 98.0577 119.394 91.3354C122.13 89.7605 124.993 88.4636 128.19 88.1851C129.007 88.1083 129.852 88.1753 130.668 88.2905C131.753 88.4442 132.655 88.9631 133.289 89.9136C134.499 91.7382 134.134 93.5436 132.214 94.5903C126.279 97.8074 120.508 102.436 118.626 109.197C116.609 116.457 120.546 125.426 130.61 126.501C152.16 128.355 170.579 100.611 182.391 84.8911C182.755 84.3727 182.342 83.6532 181.709 83.7104C176.648 84.0466 172.067 85.6881 167.938 88.6362C167.419 89.0011 166.852 89.3662 166.257 89.5679C163.856 90.3647 162.099 88.3674 162.752 86.1011C163.021 85.016 163.818 84.3152 164.721 83.7007C168.36 81.2423 172.336 79.5329 176.6 78.563C180.422 77.6891 184.292 77.0067 188.152 76.3345C189.285 76.1424 190.092 75.711 190.765 74.77C192.81 71.9179 194.942 69.1225 197.007 66.2896C201.165 60.576 206.187 55.6979 211.517 51.0981C215.108 48.0155 218.902 45.2689 223.137 43.1274C223.521 42.9258 223.886 42.7046 224.251 42.4741C224.577 42.2723 224.529 41.7734 224.164 41.6294C205.467 37.8169 185.511 33.4953 166.948 40.1694C159.285 42.9544 151.516 48.592 150.027 57.1099C149.288 61.6711 151.622 66.2421 156.625 66.6743C164.749 67.5002 173.066 60.4992 177.464 54.1899C177.762 53.777 178.04 53.3354 178.396 52.9897C179.692 51.7317 181.458 52.145 182.006 53.8735C182.361 55.0547 182.208 56.3801 181.718 57.5132C176.59 70.0257 165.412 82.0873 150.893 81.4634C135.422 80.6855 130.841 63.7256 137.727 51.6929C144.382 39.5932 157.96 33.3612 170.953 30.6147ZM233.575 65.4741C233.652 62.5549 231.04 62.6409 229.369 64.0044C227.285 65.8098 226.354 68.134 226.556 70.8901C226.633 72.0422 226.997 72.301 228.062 71.8882C230.847 70.8607 233.143 68.4413 233.575 65.4741Z" fill="white"/>
<path opacity="0.99" d="M252.82 0C286.105 6.6696e-06 318.4 2.20887 348.813 6.58789C378.257 10.8229 404.723 16.8917 427.482 24.6318C450.472 32.4488 468.602 41.6109 481.346 51.8574C488.01 57.2159 493.167 62.8717 496.653 68.6719C500.389 74.8755 502.281 81.3001 502.281 87.7822C502.281 94.2643 500.389 100.699 496.653 106.893C493.167 112.693 488.01 118.349 481.346 123.708C468.602 133.954 450.482 143.116 427.482 150.933C404.723 158.673 378.257 164.742 348.813 168.977C318.4 173.346 286.105 175.564 252.82 175.564C219.536 175.564 187.24 173.346 156.827 168.977C127.384 164.742 100.918 158.673 78.1582 150.933C55.1683 143.116 37.0373 133.955 24.2939 123.708C19.5213 119.876 15.5362 115.891 12.3672 111.81C11.1092 110.187 9.98505 108.544 8.98633 106.893C5.25078 100.689 3.35938 94.2643 3.35938 87.7822C3.35939 81.3002 5.25076 74.8755 8.98633 68.6719C9.97545 67.0201 11.1092 65.3778 12.3672 63.7549C15.5361 59.6738 19.5215 55.6889 24.2939 51.8574C37.0373 41.6109 55.1587 32.4488 78.1582 24.6318C100.918 16.8917 127.384 10.8229 156.827 6.58789C187.24 2.21846 219.536 0 252.82 0ZM252.811 9.00781C187.865 9.00781 126.865 17.5829 81.0488 33.1592C59.0481 40.64 41.849 49.293 29.9219 58.877C18.2733 68.2496 12.3574 77.9678 12.3574 87.7822C12.3574 97.5966 18.2637 107.315 29.9219 116.688C41.849 126.271 59.048 134.924 81.0488 142.405C126.856 157.982 187.865 166.557 252.811 166.557C317.757 166.557 378.756 157.982 424.572 142.405C446.573 134.924 463.772 126.271 475.699 116.688C487.348 107.315 493.264 97.5966 493.264 87.7822C493.264 77.9678 487.357 68.2496 475.699 58.877C463.772 49.2931 446.573 40.64 424.572 33.1592C378.765 17.5829 317.757 9.00781 252.811 9.00781Z" fill="white"/>
</g>
</g>
</g>
</g>
<defs>
<filter id="filter0_d_2205_20800" x="-0.000182867" y="0" width="506.364" height="182.255" filterUnits="userSpaceOnUse" color-interpolation-filters="sRGB">
<feFlood flood-opacity="0" result="BackgroundImageFix"/>
<feColorMatrix in="SourceAlpha" type="matrix" values="0 0 0 0 0 0 0 0 0 0 0 0 0 0 0 0 0 0 127 0" result="hardAlpha"/>
<feOffset dy="3.34979"/>
<feGaussianBlur stdDeviation="1.6749"/>
<feComposite in2="hardAlpha" operator="out"/>
<feColorMatrix type="matrix" values="0 0 0 0 0 0 0 0 0 0 0 0 0 0 0 0 0 0 0.25 0"/>
<feBlend mode="normal" in2="BackgroundImageFix" result="effect1_dropShadow_2205_20800"/>
<feBlend mode="normal" in="SourceGraphic" in2="effect1_dropShadow_2205_20800" result="shape"/>
</filter>
<clipPath id="clip0_2205_20800">
<rect width="498.931" height="175.555" fill="white" transform="translate(3.34961)"/>
</clipPath>
</defs>
</svg>
