<svg width="286" height="183" viewBox="0 0 286 183" fill="none" xmlns="http://www.w3.org/2000/svg">
<g opacity="0.7" filter="url(#filter0_d_2205_20815)">
<g opacity="0.99" clip-path="url(#clip0_2205_20815)">
<mask id="mask0_2205_20815" style="mask-type:luminance" maskUnits="userSpaceOnUse" x="3" y="0" width="280" height="176">
<path d="M3.34961 0V175.555H282.147V0H3.34961Z" fill="white"/>
</mask>
<g mask="url(#mask0_2205_20815)">
<g opacity="0.99">
<path opacity="0.99" d="M142.75 0C178.893 0 208.203 29.3039 208.203 65.4521C208.203 101.601 178.898 130.905 142.75 130.905C106.602 130.905 77.2979 101.6 77.2979 65.4521C77.2981 29.3041 106.602 0.000239351 142.75 0ZM96.2979 95.3721C106.132 110.615 123.264 120.703 142.75 120.703C162.236 120.703 179.369 110.615 189.203 95.3721L142.75 75.1465L96.2979 95.3721ZM141.913 10.2178C111.783 10.6662 87.5 35.2257 87.5 65.458C87.5 75.4005 90.1278 84.7333 94.7266 92.792L134.708 61.6846L141.913 10.2178ZM150.793 61.6797L190.773 92.7861C195.372 84.7274 198.001 75.3947 198.001 65.4521V65.4473C198.001 35.2147 173.717 10.655 143.587 10.207L150.793 61.6797Z" fill="white"/>
<path opacity="0.99" d="M142.95 11.249L135.744 62.7215L95.7637 93.8285L142.751 64.5028L142.95 11.249Z" fill="white"/>
<path opacity="0.99" d="M189.732 93.8287L142.75 64.5029L149.751 62.7217L189.732 93.8287Z" fill="white"/>
<path opacity="0.99" d="M146.869 3.15745C153.352 3.15745 159.624 4.07506 165.561 5.78074C159.046 3.60546 152.072 2.41797 144.823 2.41797C108.68 2.41797 79.3813 31.7167 79.3813 67.8598C79.3813 68.3401 79.3867 68.8205 79.3975 69.3009C80.11 32.6505 110.046 3.15745 146.869 3.15745Z" fill="white"/>
</g>
<g opacity="0.99">
<path opacity="0.99" d="M32.7185 142.824L23.8069 167.205L15.3163 142.619H6.02147V143.855H8.51521C9.33567 143.855 9.99419 144.535 9.9672 145.355L9.06578 172.533C9.03879 173.315 8.39646 173.936 7.6138 173.936H3.34961V175.172H15.3163V173.936H12.2126C11.3922 173.936 10.7337 173.256 10.7607 172.436L11.6945 144.335L21.6802 173.013L21.9663 173.823L22.1552 174.373H22.7328L24.5572 169.375L33.1989 145.728V172.484C33.1989 173.283 32.5512 173.936 31.7469 173.936H29.2856V175.172H41.2523V173.936H38.7909C37.9921 173.936 37.339 173.288 37.339 172.484V145.506C37.339 144.708 37.9867 144.054 38.7909 144.054H41.2523V142.818H32.7077L32.7185 142.824Z" fill="white"/>
<path opacity="0.99" d="M51.7891 151.573C56.8411 151.573 60.9374 155.67 60.9375 160.722V163.124H46.0244C46.0239 163.169 45.8976 173.946 52.415 173.946C57.1109 173.946 58.4006 169.871 58.7568 167.582H60.8564C60.2843 172.084 56.4417 175.56 51.7891 175.561C46.7368 175.561 42.6397 171.463 42.6396 166.411V160.717C42.6396 155.665 46.7368 151.567 51.7891 151.567V151.573ZM51.4922 153.16C51.4922 153.16 46.3643 152.863 46.3643 161.3H56.6201C56.6201 152.899 51.5353 153.158 51.4922 153.16Z" fill="white"/>
<path opacity="0.99" d="M75.0903 151.778C71.9434 151.913 70.6426 153.1 68.9153 155.686C68.8721 155.751 68.8397 155.805 68.7965 155.864C68.6562 153.629 68.2838 151.567 68.2838 151.567C67.2744 152.167 62.0386 152.701 62.0386 152.701V153.554H63.7983C64.5971 153.554 65.2503 154.201 65.2503 155.006V172.489C65.2503 173.288 64.6025 173.941 63.7983 173.941H61.3369V175.177H73.3036V173.941H70.8423C70.0434 173.941 69.3903 173.293 69.3903 172.489V158.854C69.3903 158.854 71.3281 151.621 74.788 154.407C74.788 154.407 75.0795 155.438 74.788 156.026C74.4965 156.609 75.3062 157.98 76.4073 157.98C77.5084 157.98 78.4746 157.688 78.6528 156.452C78.8309 155.216 78.2263 151.648 75.0795 151.783L75.0903 151.778Z" fill="white"/>
<path opacity="0.99" d="M87.6237 173.941C81.0925 173.941 82.0694 163.119 82.0694 163.119C82.0694 163.119 81.9993 160.339 82.6848 158.218C82.6848 158.212 82.6848 158.207 82.6902 158.202C83.6402 153.56 86.6845 153.182 87.3862 153.155C87.3862 153.155 92.5032 152.793 93.518 159.146H94.6245V151.292H93.8203L92.568 153.651C92.568 153.651 90.6086 151.476 87.3808 151.573C82.539 151.805 78.6797 155.805 78.6797 160.711V166.406C78.6797 171.458 82.7765 175.555 87.8288 175.555C92.4816 175.555 94.8458 172.079 95.4234 167.577H93.3237C92.9674 169.866 92.3197 173.941 87.6183 173.941H87.6237Z" fill="white"/>
<path opacity="0.99" d="M107.39 151.573C112.442 151.573 116.538 155.67 116.539 160.722V163.124H101.625C101.625 163.169 101.499 173.946 108.016 173.946C112.712 173.946 114.002 169.871 114.358 167.582H116.458C115.885 172.084 112.043 175.56 107.39 175.561C102.338 175.561 98.2408 171.463 98.2407 166.411V160.717C98.2407 155.665 102.338 151.567 107.39 151.567V151.573ZM107.093 153.16C107.093 153.16 101.965 152.863 101.965 161.3H112.221C112.221 152.899 107.137 153.158 107.093 153.16Z" fill="white"/>
<path opacity="0.99" d="M138.114 171.717C138.114 172.122 138.276 172.516 138.584 172.786C138.919 173.077 139.453 173.379 140.241 173.401L140.235 173.407C141.274 173.434 141.519 173.428 141.568 173.417L141.579 174.27C141.533 174.277 137.739 174.82 135.556 175.56C135.548 175.538 135.014 174.072 134.789 172.862C133.51 174.562 131.609 175.598 128.997 175.56C123.983 175.484 119.994 171.307 119.994 166.292V160.722C119.994 155.816 123.848 151.816 128.695 151.583C131.923 151.486 133.883 153.662 133.883 153.662L133.964 153.505V144.108H131.103V143.255C131.103 143.255 137.105 142.629 138.114 142.03V171.717ZM128.695 153.149C127.994 153.176 124.949 153.554 123.999 158.196C123.994 158.201 123.994 158.207 123.994 158.212C123.314 160.319 123.378 163.074 123.379 163.113C123.379 163.113 122.402 173.936 128.933 173.936L128.928 173.93C131.945 173.93 133.289 172.251 133.964 170.443V156.387C132.182 152.916 128.715 153.148 128.695 153.149Z" fill="white"/>
<path opacity="0.99" d="M153.088 151.573C158.14 151.573 162.236 155.67 162.236 160.722V163.124H147.323C147.323 163.169 147.196 173.946 153.714 173.946C158.41 173.946 159.699 169.871 160.056 167.582H162.155C161.583 172.084 157.741 175.56 153.088 175.561C148.036 175.561 143.939 171.463 143.938 166.411V160.717C143.938 155.665 148.036 151.567 153.088 151.567V151.573ZM152.791 153.16C152.791 153.16 147.663 152.863 147.663 161.3H157.919C157.919 152.899 152.834 153.158 152.791 153.16Z" fill="white"/>
<path opacity="0.99" d="M177.76 163.119C174.851 162.142 172.87 161.111 171.58 160.29C169.728 159.108 169.07 156.652 170.225 154.785C170.829 153.802 171.914 153.036 173.83 153.111C178.942 153.3 178.985 158.671 178.985 158.671L180.097 158.693L180.027 151.433H179.153L178.327 153.154C176.243 151.703 173.096 151.697 170.781 152.237C168.465 152.782 165.55 156.021 166.382 159.643C167.207 163.264 171.563 164.328 175.277 165.985C178.991 167.642 180.124 172.748 173.955 173.909C167.78 175.069 166.905 167.685 166.905 167.685H165.934V175.555H166.835L167.947 173.671C182.872 180.769 184.032 165.224 177.765 163.119H177.76Z" fill="white"/>
<path opacity="0.99" d="M183.169 161.105H192.205V163.253H183.169V161.105Z" fill="white"/>
<path opacity="0.99" d="M206.104 142.829C210.568 142.829 214.189 146.445 214.189 150.915C214.189 153.97 212.5 156.625 210 158.001V158.007C213.46 159 216.008 162.401 216.008 166.449C216.008 171.269 212.392 175.182 207.922 175.182H192.205V173.947H194.666C195.47 173.947 196.118 173.293 196.118 172.495V145.517C196.118 144.713 195.464 144.065 194.666 144.065H192.205V142.829H206.104ZM200.263 159.048V172.392C200.263 173.196 200.917 173.844 201.715 173.844H206.039C209.256 173.844 211.863 171.031 211.863 167.555V165.337C211.863 161.867 209.256 159.048 206.039 159.048H200.263ZM201.715 144.065C200.911 144.065 200.263 144.718 200.263 145.517V157.71H205.013C207.852 157.322 210.044 154.887 210.044 151.94V149.889C210.044 146.672 207.437 144.065 204.22 144.065H201.715Z" fill="white"/>
<path opacity="0.99" d="M228.37 151.573C233.422 151.573 237.518 155.67 237.518 160.722V163.124H222.605C222.604 163.169 222.478 173.946 228.996 173.946C233.691 173.946 234.981 169.871 235.337 167.582H237.437C236.865 172.084 233.022 175.56 228.37 175.561C223.317 175.561 219.22 171.463 219.22 166.411V160.717C219.22 155.665 223.317 151.567 228.37 151.567V151.573ZM228.073 153.16C228.073 153.16 222.945 152.863 222.945 161.3H233.201C233.201 152.899 228.116 153.158 228.073 153.16Z" fill="white"/>
<path opacity="0.99" d="M259.379 157.224C258.38 150.299 250.186 152.015 250.186 152.015C248.249 152.49 247.153 153.656 245.787 155.686C245.744 155.751 245.712 155.805 245.669 155.864C245.528 153.629 245.156 151.567 245.156 151.567C244.146 152.167 238.911 152.701 238.911 152.701V153.554H242.122V172.489C242.122 173.288 241.475 173.941 240.67 173.941H238.209V175.177H250.176V173.941H247.714C246.915 173.941 246.262 173.293 246.262 172.489V158.854C246.262 158.854 247.65 153.678 250.17 153.77C250.17 153.77 254.375 152.998 255.217 157.354V172.483C255.217 173.282 254.569 173.935 253.765 173.935H251.304V175.172H263.271V173.935H260.809C260.01 173.935 259.357 173.288 259.357 172.483V157.219L259.379 157.224Z" fill="white"/>
<path opacity="0.99" d="M282.022 152.544L282.146 152.35H265.796L264.447 159.346H265.527C265.527 159.346 266.298 154.234 270.654 153.586H277.24L264.112 175.172H280.462L281.811 168.176H280.732C280.732 168.176 279.96 173.288 275.604 173.936H269.013L282.027 152.539L282.022 152.544Z" fill="white"/>
</g>
</g>
</g>
</g>
<defs>
<filter id="filter0_d_2205_20815" x="-0.000182867" y="0" width="285.496" height="182.255" filterUnits="userSpaceOnUse" color-interpolation-filters="sRGB">
<feFlood flood-opacity="0" result="BackgroundImageFix"/>
<feColorMatrix in="SourceAlpha" type="matrix" values="0 0 0 0 0 0 0 0 0 0 0 0 0 0 0 0 0 0 127 0" result="hardAlpha"/>
<feOffset dy="3.34979"/>
<feGaussianBlur stdDeviation="1.6749"/>
<feComposite in2="hardAlpha" operator="out"/>
<feColorMatrix type="matrix" values="0 0 0 0 0 0 0 0 0 0 0 0 0 0 0 0 0 0 0.25 0"/>
<feBlend mode="normal" in2="BackgroundImageFix" result="effect1_dropShadow_2205_20815"/>
<feBlend mode="normal" in="SourceGraphic" in2="effect1_dropShadow_2205_20815" result="shape"/>
</filter>
<clipPath id="clip0_2205_20815">
<rect width="278.797" height="175.555" fill="white" transform="translate(3.34961)"/>
</clipPath>
</defs>
</svg>
