<svg width="180" height="183" viewBox="0 0 180 183" fill="none" xmlns="http://www.w3.org/2000/svg">
<g opacity="0.7" filter="url(#filter0_d_2205_20831)">
<g opacity="0.99" clip-path="url(#clip0_2205_20831)">
<mask id="mask0_2205_20831" style="mask-type:luminance" maskUnits="userSpaceOnUse" x="3" y="0" width="173" height="176">
<path d="M3.34961 0V175.555H175.961V0H3.34961Z" fill="white"/>
</mask>
<g mask="url(#mask0_2205_20831)">
<path opacity="0.99" d="M89.6582 0C127.258 0 157.744 30.4764 157.744 68.0811C157.744 105.686 127.263 136.167 89.6582 136.167V136.172C52.0535 136.172 21.5723 105.691 21.5723 68.0859C21.5723 30.4813 52.0587 3.39881e-05 89.6582 0ZM72.7236 126.054C78.0943 127.622 83.7766 128.466 89.6582 128.466C95.5398 128.466 101.222 127.622 106.593 126.054L89.6582 88.3936L72.7236 126.054ZM31.6035 51.4219C30.0858 56.7108 29.2734 62.3016 29.2734 68.0811C29.2735 91.3521 42.4365 111.542 61.7217 121.624L31.6035 51.4219ZM117.6 121.624H117.605C136.885 111.542 150.049 91.3468 150.049 68.0811C150.049 62.3016 149.236 56.7159 147.719 51.4219L117.6 121.624ZM59.1514 15.959C51.8134 20.2616 45.4665 26.0717 40.5303 32.96L67.6494 97.4893L79.7803 70.3242L89.6631 70.4365L99.5459 70.3242L111.672 97.4893L138.791 32.9648C133.855 26.0765 127.508 20.2665 120.17 15.9639L99.873 64.5703H79.4482L59.1514 15.9639V15.959ZM89.6582 7.70117C84.1854 7.70118 78.8861 8.43153 73.8477 9.7959L89.6582 47.9268L105.469 9.79102L105.464 9.7959C100.425 8.43152 95.131 7.70117 89.6582 7.70117Z" fill="white"/>
<path opacity="0.99" d="M12.4966 163.766L6.90619 145.503H3.34961L10.9431 168.794H14.05L21.6435 145.503H18.0869L12.4966 163.766Z" fill="white"/>
<path opacity="0.99" d="M29.6201 151.926C31.0609 151.926 32.2923 152.207 33.3193 152.769C34.3413 153.331 35.1234 154.149 35.665 155.222C36.2016 156.295 36.4726 157.583 36.4727 159.09V161.845C36.4726 163.363 36.2066 164.655 35.665 165.728C35.1285 166.801 34.3465 167.619 33.3193 168.186C32.2923 168.753 31.0611 169.035 29.6201 169.035C28.1792 169.035 26.948 168.753 25.9209 168.186C24.899 167.624 24.1169 166.797 23.5752 165.713C23.0387 164.63 22.7676 163.327 22.7676 161.799V159.09C22.7676 157.583 23.0336 156.295 23.5752 155.222C24.1117 154.149 24.8938 153.331 25.9209 152.769C26.9479 152.207 28.1793 151.926 29.6201 151.926ZM29.6201 155.039C28.4755 155.039 27.5912 155.391 26.9678 156.096C26.3445 156.801 26.0332 157.798 26.0332 159.09V161.845C26.0333 163.138 26.3444 164.14 26.9678 164.855C27.5912 165.57 28.4755 165.928 29.6201 165.928C30.7647 165.928 31.649 165.57 32.2725 164.855C32.8958 164.14 33.207 163.138 33.207 161.845V159.09C33.207 157.798 32.8957 156.801 32.2725 156.096C31.649 155.391 30.7648 155.039 29.6201 155.039Z" fill="white"/>
<path opacity="0.99" d="M44.6541 165.437C44.4803 165.217 44.3884 164.906 44.3884 164.502V145.503H41.123V164.466C41.123 165.866 41.4603 166.95 42.1399 167.716C42.8196 168.483 43.7752 168.871 45.0169 168.871H46.9383V165.764H45.4001C45.0782 165.764 44.8329 165.657 44.6541 165.437Z" fill="white"/>
<path opacity="0.99" d="M59.1714 150.603L53.8876 156.98V145.503H50.6172V168.794H53.8876V162.611L59.1714 168.794H64.4245L56.2944 159.76L64.4245 150.603H59.1714Z" fill="white"/>
<path opacity="0.99" d="M77.9208 159.295C77.1032 159.06 76.1118 158.907 74.9519 158.83C74.9212 158.82 74.8854 158.815 74.8548 158.815H74.7577C74.681 158.804 74.6095 158.799 74.5431 158.799C74.4766 158.799 74.4051 158.794 74.3438 158.784C73.4597 158.733 72.775 158.666 72.2947 158.59C71.8143 158.513 71.4157 158.365 71.0989 158.14C70.7821 157.915 70.6288 157.578 70.6288 157.133C70.6288 156.377 70.9047 155.805 71.4617 155.427C72.0187 155.048 72.8516 154.859 73.9605 154.859C74.727 154.859 75.5191 154.992 76.3214 155.258C77.1287 155.524 77.9463 155.927 78.7793 156.459L80.7518 154.072C80.0874 153.592 79.4027 153.194 78.6873 152.877C77.9719 152.56 77.2207 152.325 76.4389 152.166C75.6519 152.008 74.8292 151.926 73.9656 151.926C72.5348 151.926 71.3442 152.12 70.3937 152.509C69.4433 152.897 68.7279 153.485 68.2475 154.262C67.7672 155.043 67.527 156.019 67.527 157.195C67.527 158.37 67.7774 159.269 68.2731 159.903C68.7687 160.532 69.3922 160.961 70.1382 161.191C70.8843 161.421 71.799 161.579 72.8772 161.661C72.9181 161.661 72.9641 161.661 73.0049 161.671C73.0458 161.676 73.0918 161.681 73.1327 161.681C73.2196 161.692 73.3115 161.702 73.4035 161.707C73.5006 161.712 73.5926 161.717 73.6744 161.717C74.6248 161.794 75.3607 161.875 75.887 161.967C76.4082 162.059 76.8477 162.238 77.2003 162.504C77.5529 162.77 77.7266 163.173 77.7266 163.705C77.7266 164.507 77.4047 165.105 76.7557 165.509C76.1067 165.912 75.1409 166.112 73.8481 166.112C72.9845 166.112 72.1056 165.943 71.2216 165.601C70.3375 165.258 69.4433 164.747 68.549 164.063L66.6123 166.449C67.2408 167.026 67.9307 167.507 68.6768 167.89C69.4228 168.273 70.2302 168.565 71.0887 168.754C71.9472 168.948 72.867 169.04 73.8532 169.04C75.4118 169.04 76.7046 168.84 77.7368 168.447C78.7691 168.054 79.5407 167.461 80.0517 166.679C80.5627 165.892 80.8182 164.906 80.8182 163.71C80.8182 162.397 80.5422 161.395 79.9852 160.7C79.4283 160.005 78.7435 159.54 77.9259 159.305L77.9208 159.295Z" fill="white"/>
<path opacity="0.99" d="M99.9857 164.037L95.8414 152.167H93.5624L89.4181 164.037L86.4697 152.167H83.0562L88.1815 168.795H90.6497L94.7019 157.312L98.7542 168.795H101.222L106.348 152.167H102.934L99.9857 164.037Z" fill="white"/>
<path opacity="0.99" d="M115.811 151.926C117.191 151.926 118.371 152.171 119.352 152.657L119.363 152.647C120.344 153.132 121.095 153.837 121.606 154.762C122.117 155.687 122.373 156.801 122.373 158.104V168.79H119.265V167.486C119.045 167.741 118.81 167.976 118.535 168.166C118.111 168.452 117.625 168.672 117.068 168.815C116.511 168.958 115.888 169.03 115.193 169.03C113.139 169.03 111.61 168.606 110.593 167.757C109.576 166.909 109.071 165.621 109.071 163.889C109.071 162.244 109.536 161.012 110.466 160.189C111.391 159.367 112.796 158.958 114.676 158.958H119.26V158.252C119.26 157.164 118.969 156.315 118.386 155.712C117.804 155.11 116.981 154.808 115.914 154.808C115.249 154.808 114.6 154.91 113.966 155.115C113.328 155.319 112.765 155.601 112.275 155.963L109.888 154.328C110.517 153.571 111.345 152.984 112.377 152.56C113.404 152.136 114.549 151.926 115.811 151.926ZM114.692 161.589C113.833 161.589 113.2 161.779 112.776 162.157C112.352 162.535 112.142 163.112 112.142 163.894C112.142 164.737 112.423 165.365 112.985 165.769C113.547 166.173 114.396 166.377 115.541 166.377C116.792 166.377 117.722 166.245 118.335 165.979C118.949 165.708 119.255 165.294 119.255 164.727V161.589H114.692Z" fill="white"/>
<path opacity="0.99" d="M132.444 151.88C133.425 151.88 134.324 152.136 135.142 152.647C135.785 153.056 136.333 153.598 136.782 154.267L136.793 154.272V152.171H140.058V168.304C140.058 169.832 139.777 171.14 139.215 172.228C138.653 173.316 137.84 174.145 136.772 174.712C135.71 175.28 134.421 175.56 132.914 175.56C131.662 175.56 130.543 175.331 129.557 174.866C128.57 174.401 127.804 173.746 127.257 172.903L129.47 170.9C129.894 171.482 130.405 171.937 130.998 172.259C131.591 172.581 132.214 172.74 132.863 172.74C134.11 172.74 135.076 172.397 135.761 171.708C136.445 171.018 136.787 170.047 136.787 168.785V166.648C136.455 167.266 135.996 167.803 135.388 168.252C134.637 168.809 133.706 169.085 132.607 169.085C131.386 169.085 130.349 168.82 129.49 168.293C128.632 167.767 127.978 166.996 127.528 165.979C127.079 164.962 126.854 163.746 126.854 162.326V158.657C126.854 157.226 127.068 156.004 127.508 154.987C127.947 153.97 128.586 153.199 129.424 152.672C130.262 152.146 131.269 151.88 132.444 151.88ZM133.517 154.86C132.439 154.86 131.6 155.191 131.008 155.866C130.415 156.54 130.119 157.486 130.119 158.703V162.32C130.119 163.526 130.415 164.457 131.008 165.116C131.6 165.775 132.439 166.102 133.517 166.102C134.206 166.102 134.8 165.964 135.285 165.693C135.771 165.422 136.144 165.028 136.399 164.517C136.655 164.006 136.782 163.393 136.782 162.678V158.207C136.782 157.502 136.655 156.899 136.399 156.398C136.144 155.897 135.77 155.514 135.285 155.253C134.8 154.993 134.212 154.86 133.517 154.86Z" fill="white"/>
<path opacity="0.99" d="M151.536 151.926C152.925 151.926 154.111 152.273 155.092 152.968L155.086 152.963C156.068 153.658 156.819 154.66 157.335 155.973C157.852 157.286 158.112 158.865 158.112 160.7V161.789H147.647C147.673 163.092 148.025 164.104 148.725 164.814C149.451 165.55 150.483 165.917 151.817 165.917C152.481 165.917 153.14 165.785 153.789 165.519C154.443 165.253 155.026 164.88 155.537 164.4L157.683 166.546C156.861 167.338 155.941 167.946 154.914 168.38C153.887 168.815 152.859 169.03 151.822 169.03C150.284 169.03 148.97 168.743 147.881 168.166C146.793 167.588 145.965 166.74 145.393 165.626C144.821 164.513 144.535 163.163 144.535 161.584V159.708C144.535 158.069 144.805 156.663 145.357 155.499C145.909 154.339 146.707 153.449 147.754 152.841C148.802 152.233 150.064 151.926 151.536 151.926ZM151.541 154.875C150.299 154.875 149.343 155.279 148.664 156.091C148.045 156.832 147.724 157.87 147.667 159.167H155.015C154.918 157.814 154.571 156.756 153.968 156.004C153.365 155.253 152.557 154.875 151.541 154.875Z" fill="white"/>
<path opacity="0.99" d="M174.48 153.699C173.494 152.519 172.094 151.931 170.29 151.931C169.288 151.931 168.368 152.202 167.541 152.749C166.881 153.183 166.324 153.771 165.864 154.496V152.171H162.599V168.799H165.864V158.278C165.864 157.251 166.156 156.459 166.738 155.891C167.321 155.324 168.143 155.043 169.211 155.043C170.279 155.043 171.164 155.365 171.777 156.004C172.385 156.643 172.691 157.552 172.691 158.727V168.804H175.957V158.712C175.957 156.556 175.461 154.885 174.475 153.704L174.48 153.699Z" fill="white"/>
</g>
</g>
</g>
<defs>
<filter id="filter0_d_2205_20831" x="-0.000182867" y="0" width="179.311" height="182.255" filterUnits="userSpaceOnUse" color-interpolation-filters="sRGB">
<feFlood flood-opacity="0" result="BackgroundImageFix"/>
<feColorMatrix in="SourceAlpha" type="matrix" values="0 0 0 0 0 0 0 0 0 0 0 0 0 0 0 0 0 0 127 0" result="hardAlpha"/>
<feOffset dy="3.34979"/>
<feGaussianBlur stdDeviation="1.6749"/>
<feComposite in2="hardAlpha" operator="out"/>
<feColorMatrix type="matrix" values="0 0 0 0 0 0 0 0 0 0 0 0 0 0 0 0 0 0 0.25 0"/>
<feBlend mode="normal" in2="BackgroundImageFix" result="effect1_dropShadow_2205_20831"/>
<feBlend mode="normal" in="SourceGraphic" in2="effect1_dropShadow_2205_20831" result="shape"/>
</filter>
<clipPath id="clip0_2205_20831">
<rect width="172.612" height="175.555" fill="white" transform="translate(3.34961)"/>
</clipPath>
</defs>
</svg>
