<svg width="144.516113" height="91.000000" viewBox="0 0 144.516 91" fill="none" xmlns="http://www.w3.org/2000/svg" xmlns:xlink="http://www.w3.org/1999/xlink">
	<desc>
			Created with Pixso.
	</desc>
	<defs>
		<clipPath id="clip3_3647">
			<rect id="Mercedes Benz" width="144.516083" height="91.000000" fill="white" fill-opacity="0"/>
		</clipPath>
	</defs>
	<g opacity="0.990000" style="mix-blend-mode:normal">
		<rect id="Mercedes Benz" width="144.516083" height="91.000000" fill="#FFFFFF" fill-opacity="0"/>
		<g clip-path="url(#clip3_3647)">
			<mask id="mask3_3609" mask-type="alpha" maskUnits="userSpaceOnUse" x="0.000000" y="0.000000" width="144.516083" height="91.000000">
				<path id="Clip" d="M0 0L0 91L144.51 91L144.51 0L0 0Z" fill="#000000" fill-opacity="1.000000" fill-rule="nonzero"/>
			</mask>
			<g mask="url(#mask3_3609)">
				<g opacity="0.990000" style="mix-blend-mode:normal">
					<g opacity="0.990000" style="mix-blend-mode:normal">
						<path id="Vector" d="M38.3315 33.9277C38.3315 15.1899 53.5215 0 72.2593 0C90.9941 0 106.187 15.1899 106.187 33.9277C106.187 52.6655 90.9971 67.8555 72.2593 67.8555C53.5215 67.8555 38.3315 52.6655 38.3315 33.9277ZM97.1523 48.0964C99.5361 43.9192 100.899 39.0815 100.899 33.9277L100.899 33.925C100.899 18.2537 88.311 5.52319 72.6929 5.29077L76.4282 31.9719L97.1523 48.0964ZM71.8257 5.2937L71.8252 5.29639C56.2075 5.52881 43.6196 18.2595 43.6196 33.9307C43.6196 39.0842 44.9824 43.9219 47.3662 48.0994L68.0903 31.9749L71.8252 5.29639L71.8257 5.29639L71.8257 5.2937ZM48.1802 49.4368C53.2783 57.3381 62.1587 62.5674 72.2593 62.5674C82.3599 62.5674 91.2402 57.3381 96.3384 49.4368L72.2593 38.9529L48.1802 49.4368Z" clip-rule="evenodd" fill="#713ddd" fill-opacity="1.000000" fill-rule="evenodd"/>
					</g>
					<g opacity="0.990000" style="mix-blend-mode:normal">
						<path id="Vector" d="M72.36 5.83L68.62 32.51L47.9 48.63L72.25 33.43L72.36 5.83Z" fill="#713ddd" fill-opacity="1.000000" fill-rule="nonzero"/>
					</g>
					<g opacity="0.990000" style="mix-blend-mode:normal">
						<path id="Vector" d="M96.61 48.63L72.25 33.43L75.88 32.51L96.61 48.63Z" fill="#713ddd" fill-opacity="1.000000" fill-rule="nonzero"/>
					</g>
					<g opacity="0.990000" style="mix-blend-mode:normal">
						<path id="Vector" d="M74.39 1.63C77.75 1.63 81 2.11 84.08 2.99C80.7 1.86 77.09 1.25 73.33 1.25C54.59 1.25 39.41 16.44 39.41 35.17C39.41 35.42 39.41 35.67 39.41 35.92C39.78 16.92 55.3 1.63 74.39 1.63Z" fill="#4E6CFB" fill-opacity="1.000000" fill-rule="nonzero"/>
					</g>
				</g>
			</g>
			<g mask="url(#mask3_3609)">
				<g opacity="0.990000" style="mix-blend-mode:normal">
					<g opacity="0.990000" style="mix-blend-mode:normal">
						<path id="Vector" d="M15.22 74.03L10.6 86.67L6.2 73.92L1.38 73.92L1.38 74.56L2.67 74.56C3.1 74.56 3.44 74.92 3.43 75.34L2.96 89.43C2.94 89.83 2.61 90.16 2.21 90.16L0 90.16L0 90.8L6.2 90.8L6.2 90.16L4.59 90.16C4.16 90.16 3.82 89.8 3.84 89.38L4.32 74.81L9.5 89.68L9.64 90.1L9.74 90.38L10.04 90.38L10.99 87.79L15.47 75.53L15.47 89.4C15.47 89.82 15.13 90.16 14.71 90.16L13.44 90.16L13.44 90.8L19.64 90.8L19.64 90.16L18.37 90.16C17.95 90.16 17.61 89.82 17.61 89.4L17.61 75.42C17.61 75 17.95 74.67 18.37 74.67L19.64 74.67L19.64 74.03L15.21 74.03L15.22 74.03Z" fill="#713ddd" fill-opacity="1.000000" fill-rule="nonzero"/>
					</g>
					<g opacity="0.990000" style="mix-blend-mode:normal">
						<path id="Vector" d="M25.1089 78.5659C22.4897 78.5659 20.3662 80.6895 20.3662 83.3083L20.3662 86.2603C20.3662 88.8792 22.4897 91.0027 25.1089 91.0027C27.5205 91.0027 29.5127 89.2009 29.8091 86.8674L28.7207 86.8674C28.5361 88.0537 27.8677 90.1663 25.4331 90.1663C22.0479 90.1663 22.1206 84.5564 22.1206 84.5564L29.8511 84.5564L29.8511 83.3113C29.8511 80.6924 27.7275 78.5686 25.1089 78.5686L25.1089 78.5659ZM22.2969 83.6106L27.6128 83.6106C27.6128 79.2373 24.9546 79.3914 24.9546 79.3914C24.9546 79.3914 22.2969 79.2373 22.2969 83.6106Z" clip-rule="evenodd" fill="#713ddd" fill-opacity="1.000000" fill-rule="evenodd"/>
					</g>
					<g opacity="0.990000" style="mix-blend-mode:normal">
						<path id="Vector" d="M37.18 78.67C35.55 78.74 34.88 79.36 33.98 80.7C33.96 80.73 33.94 80.76 33.92 80.79C33.85 79.63 33.65 78.56 33.65 78.56C33.13 78.87 30.42 79.15 30.42 79.15L30.42 79.59L31.33 79.59C31.74 79.59 32.08 79.93 32.08 80.34L32.08 89.41C32.08 89.82 31.75 90.16 31.33 90.16L30.05 90.16L30.05 90.8L36.26 90.8L36.26 90.16L34.98 90.16C34.57 90.16 34.23 89.82 34.23 89.41L34.23 82.34C34.23 82.34 35.23 78.59 37.03 80.03C37.03 80.03 37.18 80.57 37.03 80.87C36.87 81.17 37.29 81.88 37.87 81.88C38.44 81.88 38.94 81.73 39.03 81.09C39.12 80.45 38.81 78.6 37.18 78.67L37.18 78.67Z" fill="#713ddd" fill-opacity="1.000000" fill-rule="nonzero"/>
					</g>
					<g opacity="0.990000" style="mix-blend-mode:normal">
						<path id="Vector" d="M43.68 90.16C40.29 90.16 40.8 84.55 40.8 84.55C40.8 84.55 40.76 83.11 41.12 82.01C41.12 82.01 41.12 82 41.12 82C41.61 79.59 43.19 79.4 43.56 79.38C43.56 79.38 46.21 79.2 46.73 82.49L47.31 82.49L47.31 78.42L46.89 78.42L46.24 79.64C46.24 79.64 45.23 78.51 43.55 78.56C41.04 78.68 39.04 80.76 39.04 83.3L39.04 86.25C39.04 88.87 41.17 91 43.79 91C46.2 91 47.42 89.19 47.72 86.86L46.63 86.86C46.45 88.05 46.11 90.16 43.68 90.16L43.68 90.16Z" fill="#713ddd" fill-opacity="1.000000" fill-rule="nonzero"/>
					</g>
					<g opacity="0.990000" style="mix-blend-mode:normal">
						<path id="Vector" d="M53.9297 78.5659C51.3105 78.5659 49.187 80.6895 49.187 83.3083L49.187 86.2603C49.187 88.8792 51.3105 91.0027 53.9297 91.0027C56.3413 91.0027 58.3335 89.2009 58.6299 86.8674L57.5415 86.8674C57.3569 88.0537 56.6885 90.1663 54.2539 90.1663C50.8687 90.1663 50.9414 84.5564 50.9414 84.5564L58.6719 84.5564L58.6719 83.3113C58.6719 80.6924 56.5483 78.5686 53.9297 78.5686L53.9297 78.5659ZM51.1177 83.6106L56.4336 83.6106C56.4336 79.2373 53.7754 79.3914 53.7754 79.3914C53.7754 79.3914 51.1177 79.2373 51.1177 83.6106Z" clip-rule="evenodd" fill="#713ddd" fill-opacity="1.000000" fill-rule="evenodd"/>
					</g>
					<g opacity="0.990000" style="mix-blend-mode:normal"/>
					<g opacity="0.990000" style="mix-blend-mode:normal">
						<path id="Vector" d="M70.958 89.8835C70.5493 89.8726 70.2725 89.7158 70.0991 89.5647C69.9395 89.4248 69.8555 89.2205 69.8555 89.0107L69.8555 73.6221C69.3325 73.9326 66.2212 74.2571 66.2212 74.2571L66.2212 74.6992L67.7041 74.6992L67.7041 79.5706L67.6621 79.6516C67.6621 79.6516 66.6465 78.5239 64.9731 78.5745C62.4604 78.6948 60.4629 80.7681 60.4629 83.3113L60.4629 86.1987C60.4629 88.7981 62.5308 90.9636 65.1299 91.0029C66.4839 91.0225 67.4688 90.4851 68.1318 89.6038C68.2495 90.2361 68.5293 91.0029 68.5293 91.0029C69.668 90.6167 71.6519 90.3342 71.6519 90.3342L71.646 89.8921C71.6211 89.8977 71.4951 89.9004 70.9551 89.8865L70.958 89.8835ZM62.2173 84.5508C62.2173 84.5508 61.7109 90.1606 65.0962 90.1606L65.0933 90.158C66.6577 90.158 67.354 89.2876 67.7041 88.3503L67.7041 81.0647C66.7778 79.26 64.9731 79.3857 64.9731 79.3857C64.6094 79.3999 63.0312 79.5957 62.5391 82.002C62.5361 82.0046 62.5361 82.0076 62.5361 82.0103C62.1807 83.1099 62.2173 84.5508 62.2173 84.5508Z" clip-rule="evenodd" fill="#713ddd" fill-opacity="1.000000" fill-rule="evenodd"/>
					</g>
					<g opacity="0.990000" style="mix-blend-mode:normal">
						<path id="Vector" d="M77.6172 78.5659C74.998 78.5659 72.8745 80.6895 72.8745 83.3083L72.8745 86.2603C72.8745 88.8792 74.998 91.0027 77.6172 91.0027C80.0288 91.0027 82.021 89.2009 82.3174 86.8674L81.229 86.8674C81.0444 88.0537 80.376 90.1663 77.9414 90.1663C74.5562 90.1663 74.6289 84.5564 74.6289 84.5564L82.3594 84.5564L82.3594 83.3113C82.3594 80.6924 80.2358 78.5686 77.6172 78.5686L77.6172 78.5659ZM74.8052 83.6106L80.1211 83.6106C80.1211 79.2373 77.4629 79.3914 77.4629 79.3914C77.4629 79.3914 74.8052 79.2373 74.8052 83.6106Z" clip-rule="evenodd" fill="#713ddd" fill-opacity="1.000000" fill-rule="evenodd"/>
					</g>
					<g opacity="0.990000" style="mix-blend-mode:normal">
						<path id="Vector" d="M90.4 84.55C88.89 84.04 87.87 83.51 87.2 83.08C86.24 82.47 85.9 81.2 86.5 80.23C86.81 79.72 87.37 79.32 88.36 79.36C91.01 79.46 91.04 82.24 91.04 82.24L91.61 82.25L91.58 78.49L91.12 78.49L90.7 79.38C89.62 78.63 87.98 78.63 86.78 78.91C85.58 79.19 84.07 80.87 84.5 82.75C84.93 84.62 87.19 85.18 89.11 86.03C91.04 86.89 91.63 89.54 88.43 90.14C85.23 90.74 84.77 86.92 84.77 86.92L84.27 86.92L84.27 91L84.74 91L85.31 90.02C93.05 93.7 93.65 85.64 90.4 84.55L90.4 84.55Z" fill="#713ddd" fill-opacity="1.000000" fill-rule="nonzero"/>
					</g>
					<g opacity="0.990000" style="mix-blend-mode:normal">
						<path id="Vector" d="M93.21 83.51L97.89 83.51L97.89 84.62L93.21 84.62L93.21 83.51Z" fill="#713ddd" fill-opacity="1.000000" fill-rule="nonzero"/>
					</g>
					<g opacity="0.990000" style="mix-blend-mode:normal">
						<path id="Vector" d="M109.291 78.2275C109.291 79.811 108.415 81.1877 107.12 81.9011L107.12 81.9038C108.913 82.4187 110.234 84.1814 110.234 86.2798C110.234 88.7786 108.359 90.8069 106.042 90.8069L97.895 90.8069L97.895 90.1663L99.1709 90.1663C99.5879 90.1663 99.9233 89.8276 99.9233 89.4136L99.9233 75.4294C99.9233 75.0127 99.585 74.6768 99.1709 74.6768L97.895 74.6768L97.895 74.0361L105.1 74.0361C107.414 74.0361 109.291 75.9106 109.291 78.2275ZM104.123 74.6768C105.791 74.6768 107.142 76.0283 107.142 77.6958L107.142 78.759C107.142 80.2866 106.006 81.5486 104.535 81.75L102.072 81.75L102.072 75.4294C102.072 75.0154 102.408 74.6768 102.825 74.6768L104.123 74.6768ZM105.066 90.113C106.734 90.113 108.085 88.6553 108.085 86.8535L108.085 85.7036C108.085 83.9045 106.734 82.4438 105.066 82.4438L102.072 82.4438L102.072 89.3604C102.072 89.7773 102.411 90.113 102.825 90.113L105.066 90.113Z" clip-rule="evenodd" fill="#713ddd" fill-opacity="1.000000" fill-rule="evenodd"/>
					</g>
					<g opacity="0.990000" style="mix-blend-mode:normal">
						<path id="Vector" d="M116.64 78.5659C114.021 78.5659 111.897 80.6895 111.897 83.3083L111.897 86.2603C111.897 88.8792 114.021 91.0027 116.64 91.0027C119.051 91.0027 121.043 89.2009 121.34 86.8674L120.251 86.8674C120.067 88.0537 119.398 90.1663 116.964 90.1663C113.579 90.1663 113.651 84.5564 113.651 84.5564L121.382 84.5564L121.382 83.3113C121.382 80.6924 119.258 78.5686 116.64 78.5686L116.64 78.5659ZM113.828 83.6106L119.144 83.6106C119.144 79.2373 116.485 79.3914 116.485 79.3914C116.485 79.3914 113.828 79.2373 113.828 83.6106Z" clip-rule="evenodd" fill="#713ddd" fill-opacity="1.000000" fill-rule="evenodd"/>
					</g>
					<g opacity="0.990000" style="mix-blend-mode:normal">
						<path id="Vector" d="M132.71 81.49C132.19 77.9 127.94 78.79 127.94 78.79C126.94 79.04 126.37 79.64 125.66 80.7C125.64 80.73 125.63 80.76 125.6 80.79C125.53 79.63 125.34 78.56 125.34 78.56C124.81 78.87 122.1 79.15 122.1 79.15L122.1 79.59L123.76 79.59L123.76 89.41C123.76 89.82 123.43 90.16 123.01 90.16L121.74 90.16L121.74 90.8L127.94 90.8L127.94 90.16L126.66 90.16C126.25 90.16 125.91 89.82 125.91 89.41L125.91 82.34C125.91 82.34 126.63 79.65 127.94 79.7C127.94 79.7 130.12 79.3 130.55 81.56L130.55 89.4C130.55 89.82 130.22 90.16 129.8 90.16L128.52 90.16L128.52 90.8L134.73 90.8L134.73 90.16L133.45 90.16C133.04 90.16 132.7 89.82 132.7 89.4L132.7 81.49L132.71 81.49Z" fill="#713ddd" fill-opacity="1.000000" fill-rule="nonzero"/>
					</g>
					<g opacity="0.990000" style="mix-blend-mode:normal">
						<path id="Vector" d="M144.45 79.07L144.51 78.97L136.04 78.97L135.34 82.59L135.9 82.59C135.9 82.59 136.3 79.94 138.55 79.61L141.97 79.61L135.16 90.8L143.64 90.8L144.34 87.17L143.78 87.17C143.78 87.17 143.38 89.82 141.12 90.16L137.7 90.16L144.45 79.06L144.45 79.07Z" fill="#713ddd" fill-opacity="1.000000" fill-rule="nonzero"/>
					</g>
				</g>
			</g>
		</g>
	</g>
</svg>
