<svg width="89.474121" height="91.000000" viewBox="0 0 89.4741 91" fill="none" xmlns="http://www.w3.org/2000/svg" xmlns:xlink="http://www.w3.org/1999/xlink">
	<desc>
			Created with Pixso.
	</desc>
	<defs>
		<clipPath id="clip3_3674">
			<rect id="VW" width="89.474289" height="91.000000" fill="white" fill-opacity="0"/>
		</clipPath>
	</defs>
	<g opacity="0.990000" style="mix-blend-mode:normal">
		<rect id="VW" width="89.474289" height="91.000000" fill="#FFFFFF" fill-opacity="0"/>
		<g clip-path="url(#clip3_3674)">
			<mask id="mask3_3648" mask-type="alpha" maskUnits="userSpaceOnUse" x="0.000000" y="0.000000" width="89.474289" height="91.000000">
				<path id="Clip" d="M0 0L0 91L89.47 91L89.47 0L0 0Z" fill="#000000" fill-opacity="1.000000" fill-rule="nonzero"/>
			</mask>
			<g mask="url(#mask3_3648)">
				<g opacity="0.990000" style="mix-blend-mode:normal">
					<path id="Vector" d="M44.7383 70.583C64.231 70.583 80.0308 54.7827 80.0308 35.29C80.0308 15.7976 64.228 0 44.7383 0C25.248 0 9.44531 15.8003 9.44531 35.2927C9.44531 54.7854 25.2456 70.5857 44.7383 70.5857L44.7383 70.583ZM44.7383 24.8433L52.9336 5.0752L52.9307 5.07788C50.3193 4.37061 47.5752 3.9917 44.7383 3.9917C41.9014 3.9917 39.1543 4.37061 36.5425 5.07788L44.7383 24.8433ZM28.9248 8.2749L39.4458 33.4705L50.0332 33.4705L60.5542 8.2749C64.3579 10.5051 67.6475 13.5168 70.2065 17.0874L56.1494 50.5342L49.8638 36.4529L44.7407 36.5112L39.6182 36.4529L33.3296 50.5342L19.2725 17.085C21.8311 13.5142 25.1211 10.5024 28.9248 8.27222L28.9248 8.2749ZM30.2568 63.0444L14.645 26.655C13.8584 29.3965 13.437 32.2944 13.437 35.29C13.437 47.3528 20.2603 57.8184 30.2568 63.0444ZM59.2217 63.0444L74.834 26.655C75.6206 29.3992 76.042 32.2944 76.042 35.29C76.042 47.3501 69.2183 57.8184 59.2246 63.0444L59.2217 63.0444ZM44.7383 45.8191L35.96 65.3408C38.7437 66.1541 41.6895 66.5911 44.7383 66.5911C47.7871 66.5911 50.7324 66.1541 53.5161 65.3408L44.7383 45.8191Z" clip-rule="evenodd" fill="#713ddd" fill-opacity="1.000000" fill-rule="evenodd"/>
				</g>
			</g>
			<g mask="url(#mask3_3648)">
				<g opacity="0.990000" style="mix-blend-mode:normal">
					<path id="Vector" d="M4.74 84.88L1.84 75.42L0 75.42L3.93 87.49L5.54 87.49L9.48 75.42L7.63 75.42L4.74 84.88Z" fill="#713ddd" fill-opacity="1.000000" fill-rule="nonzero"/>
				</g>
			</g>
			<g mask="url(#mask3_3648)">
				<g opacity="0.990000" style="mix-blend-mode:normal">
					<path id="Vector" d="M15.5347 79.189C15.0024 78.8977 14.3638 78.752 13.6172 78.752C12.8701 78.752 12.2314 78.8977 11.6992 79.189C11.167 79.4805 10.7617 79.9043 10.4834 80.4604C10.2026 81.0166 10.0649 81.6841 10.0649 82.4656L10.0649 83.8694C10.0649 84.6614 10.2056 85.3369 10.4834 85.8984C10.7642 86.46 11.1694 86.8892 11.6992 87.1804C12.2314 87.4746 12.8701 87.6201 13.6172 87.6201C14.3638 87.6201 15.0024 87.4746 15.5347 87.1804C16.0674 86.8865 16.4727 86.4626 16.7505 85.9065C17.0312 85.3501 17.1689 84.6799 17.1689 83.8933L17.1689 82.4656C17.1689 81.6841 17.0288 81.0166 16.7505 80.4604C16.4697 79.9043 16.0645 79.4805 15.5347 79.189ZM14.9917 85.4534C15.3149 85.0825 15.4766 84.5635 15.4766 83.8933L15.4766 82.4656C15.4766 81.7954 15.3149 81.2788 14.9917 80.9133C14.6685 80.5479 14.2104 80.365 13.6172 80.365C13.0234 80.365 12.5654 80.5479 12.2422 80.9133C11.9189 81.2788 11.7573 81.7954 11.7573 82.4656L11.7573 83.8933C11.7573 84.5635 11.9189 85.0825 12.2422 85.4534C12.5654 85.8242 13.0234 86.0098 13.6172 86.0098C14.2104 86.0098 14.6685 85.8242 14.9917 85.4534Z" clip-rule="evenodd" fill="#713ddd" fill-opacity="1.000000" fill-rule="evenodd"/>
				</g>
			</g>
			<g mask="url(#mask3_3648)">
				<g opacity="0.990000" style="mix-blend-mode:normal">
					<path id="Vector" d="M21.41 85.75C21.32 85.64 21.27 85.48 21.27 85.27L21.27 75.42L19.58 75.42L19.58 85.25C19.58 85.97 19.75 86.53 20.1 86.93C20.45 87.33 20.95 87.53 21.59 87.53L22.59 87.53L22.59 85.92L21.79 85.92C21.63 85.92 21.5 85.86 21.41 85.75Z" fill="#713ddd" fill-opacity="1.000000" fill-rule="nonzero"/>
				</g>
			</g>
			<g mask="url(#mask3_3648)">
				<g opacity="0.990000" style="mix-blend-mode:normal">
					<path id="Vector" d="M28.93 78.06L26.19 81.37L26.19 75.42L24.5 75.42L24.5 87.49L26.19 87.49L26.19 84.29L28.93 87.49L31.65 87.49L27.44 82.81L31.65 78.06L28.93 78.06Z" fill="#713ddd" fill-opacity="1.000000" fill-rule="nonzero"/>
				</g>
			</g>
			<g mask="url(#mask3_3648)">
				<g opacity="0.990000" style="mix-blend-mode:normal">
					<path id="Vector" d="M38.65 82.57C38.23 82.44 37.71 82.37 37.11 82.33C37.09 82.32 37.08 82.32 37.06 82.32L37.01 82.32C36.97 82.31 36.93 82.31 36.9 82.31C36.86 82.31 36.83 82.31 36.8 82.3C36.34 82.28 35.98 82.24 35.73 82.2C35.48 82.16 35.28 82.08 35.11 81.97C34.95 81.85 34.87 81.68 34.87 81.45C34.87 81.05 35.01 80.76 35.3 80.56C35.59 80.37 36.02 80.27 36.6 80.27C36.99 80.27 37.4 80.34 37.82 80.47C38.24 80.61 38.66 80.82 39.09 81.1L40.12 79.86C39.77 79.61 39.42 79.4 39.05 79.24C38.68 79.08 38.29 78.95 37.88 78.87C37.47 78.79 37.05 78.75 36.6 78.75C35.86 78.75 35.24 78.85 34.75 79.05C34.25 79.25 33.88 79.55 33.64 79.96C33.39 80.36 33.26 80.87 33.26 81.48C33.26 82.09 33.39 82.55 33.65 82.88C33.91 83.21 34.23 83.43 34.62 83.55C35 83.67 35.48 83.75 36.04 83.79C36.06 83.79 36.08 83.79 36.1 83.8C36.12 83.8 36.15 83.8 36.17 83.8C36.21 83.81 36.26 83.81 36.31 83.82C36.36 83.82 36.41 83.82 36.45 83.82C36.94 83.86 37.32 83.9 37.6 83.95C37.87 84 38.09 84.09 38.28 84.23C38.46 84.37 38.55 84.58 38.55 84.85C38.55 85.27 38.38 85.58 38.05 85.79C37.71 86 37.21 86.1 36.54 86.1C36.09 86.1 35.64 86.01 35.18 85.84C34.72 85.66 34.25 85.39 33.79 85.04L32.79 86.27C33.11 86.57 33.47 86.82 33.86 87.02C34.24 87.22 34.66 87.37 35.11 87.47C35.55 87.57 36.03 87.62 36.54 87.62C37.35 87.62 38.02 87.51 38.55 87.31C39.09 87.11 39.49 86.8 39.75 86.39C40.02 85.99 40.15 85.48 40.15 84.86C40.15 84.17 40.01 83.66 39.72 83.3C39.43 82.93 39.08 82.69 38.65 82.57L38.65 82.57Z" fill="#713ddd" fill-opacity="1.000000" fill-rule="nonzero"/>
				</g>
			</g>
			<g mask="url(#mask3_3648)">
				<g opacity="0.990000" style="mix-blend-mode:normal">
					<path id="Vector" d="M50.09 85.02L47.94 78.87L46.76 78.87L44.61 85.02L43.08 78.87L41.31 78.87L43.97 87.49L45.25 87.49L47.35 81.54L49.45 87.49L50.73 87.49L53.38 78.87L51.61 78.87L50.09 85.02Z" fill="#713ddd" fill-opacity="1.000000" fill-rule="nonzero"/>
				</g>
			</g>
			<g mask="url(#mask3_3648)">
				<g opacity="0.990000" style="mix-blend-mode:normal">
					<path id="Vector" d="M60.1313 79.1306C59.6226 78.8792 59.0107 78.752 58.2954 78.752C57.6411 78.752 57.0479 78.8606 56.5156 79.0803C55.9805 79.3003 55.5513 79.605 55.2256 79.9968L56.4624 80.8445C56.7168 80.6565 57.0083 80.5107 57.3394 80.4048C57.668 80.2988 58.0044 80.2458 58.3486 80.2458C58.9023 80.2458 59.3286 80.4021 59.6304 80.7148C59.9326 81.0273 60.0835 81.467 60.0835 82.0312L60.0835 82.3967L57.7075 82.3967C56.7329 82.3967 56.0044 82.6086 55.5249 83.0352C55.043 83.4614 54.8018 84.0999 54.8018 84.9529C54.8018 85.8508 55.064 86.5183 55.5913 86.958C56.1182 87.3977 56.9102 87.6174 57.9751 87.6174C58.3354 87.6174 58.6582 87.5806 58.9473 87.5063C59.2358 87.4321 59.4873 87.3181 59.7075 87.1699C59.8506 87.0718 59.9722 86.95 60.0859 86.8176L60.0859 87.4929L61.6968 87.4929L61.6968 81.9543C61.6968 81.2788 61.564 80.7014 61.2993 80.2219C61.0342 79.7427 60.645 79.377 60.1362 79.1255L60.1313 79.1306ZM59.604 86.0361C59.9219 85.8958 60.0811 85.6812 60.0811 85.3872L60.0811 83.7607L57.7153 83.7607C57.2705 83.7607 56.9419 83.8589 56.7222 84.0549C56.5024 84.251 56.3936 84.5503 56.3936 84.9556C56.3936 85.3926 56.5396 85.7183 56.8306 85.9275C57.1221 86.137 57.562 86.2429 58.1553 86.2429C58.8042 86.2429 59.2861 86.1738 59.604 86.0361Z" clip-rule="evenodd" fill="#713ddd" fill-opacity="1.000000" fill-rule="evenodd"/>
				</g>
			</g>
			<g mask="url(#mask3_3648)">
				<g opacity="0.990000" style="mix-blend-mode:normal">
					<path id="Vector" d="M69.1655 79.9651C68.9326 79.6179 68.6494 79.3372 68.3154 79.1252Q68.0342 78.9495 67.7275 78.8516Q67.3418 78.728 66.917 78.728C66.3076 78.728 65.7856 78.8657 65.3516 79.1387Q65.2275 79.2163 65.1152 79.3076Q64.6348 79.698 64.3579 80.3386C64.1304 80.8657 64.019 81.4988 64.019 82.2405L64.019 84.1421C64.019 84.8787 64.1357 85.509 64.3687 86.0361C64.6016 86.5632 64.9409 86.9631 65.3857 87.2361C65.8311 87.5088 66.3687 87.6465 67.0015 87.6465C67.5713 87.6465 68.0532 87.5037 68.4424 87.2148C68.7578 86.9817 68.9961 86.7036 69.1685 86.3831L69.1685 87.4902C69.1685 88.1445 68.9907 88.6479 68.6357 89.0054C68.2808 89.363 67.7803 89.5405 67.1343 89.5405C66.7979 89.5405 66.4746 89.4585 66.167 89.2915C65.8599 89.1245 65.5952 88.8889 65.375 88.5869L64.2285 89.6252C64.5117 90.0623 64.9092 90.4014 65.4204 90.6423C65.9316 90.8835 66.5117 91.0027 67.1606 91.0027C67.9419 91.0027 68.6094 90.8569 69.1602 90.563C69.7139 90.2688 70.1353 89.8398 70.4268 89.2756C70.7178 88.7114 70.8638 88.0332 70.8638 87.2412L70.8638 78.8789L69.1709 78.8789L69.1709 79.9678L69.1655 79.9651ZM68.9668 85.2786C69.0996 85.0137 69.1655 84.6958 69.1655 84.325L69.1655 82.0073C69.1655 81.6418 69.0996 81.3291 68.9668 81.0696C68.8345 80.8101 68.6411 80.6113 68.3896 80.4763C68.1382 80.3411 67.8335 80.2722 67.4731 80.2722C66.9141 80.2722 66.48 80.4443 66.1724 80.7942C65.8652 81.1438 65.7114 81.6338 65.7114 82.2642L65.7114 84.1396C65.7114 84.7646 65.8652 85.2468 66.1724 85.5884C66.48 85.9302 66.9141 86.0996 67.4731 86.0996C67.8306 86.0996 68.1382 86.0281 68.3896 85.8877C68.6411 85.7473 68.8345 85.5435 68.9668 85.2786Z" clip-rule="evenodd" fill="#713ddd" fill-opacity="1.000000" fill-rule="evenodd"/>
				</g>
			</g>
			<g mask="url(#mask3_3648)">
				<g opacity="0.990000" style="mix-blend-mode:normal">
					<path id="Vector" d="M78.6558 79.2922C78.147 78.9321 77.5322 78.752 76.812 78.752C76.0493 78.752 75.395 78.9109 74.8521 79.2261C74.3091 79.5413 73.8955 80.0022 73.6094 80.6035C73.3237 81.2075 73.1831 81.9358 73.1831 82.7861L73.1831 83.7583C73.1831 84.5767 73.3315 85.2759 73.6279 85.8535C73.9248 86.4309 74.354 86.8706 74.918 87.1699C75.4824 87.4692 76.1631 87.6174 76.9604 87.6174C77.498 87.6174 78.0303 87.5063 78.563 87.2812C79.0952 87.0559 79.5723 86.7407 79.9985 86.3303L78.8862 85.2178C78.6211 85.4668 78.3193 85.6602 77.98 85.7979C77.6436 85.9355 77.3022 86.0044 76.9575 86.0044C76.2661 86.0044 75.7314 85.8137 75.355 85.4324C74.9922 85.064 74.8096 84.5396 74.7964 83.8643L80.2212 83.8643L80.2212 83.3C80.2212 82.3491 80.0859 81.5305 79.8184 80.8499C79.5508 80.1692 79.1616 79.6499 78.6528 79.2896L78.6558 79.2922ZM75.3232 80.9106C75.0029 81.2949 74.8359 81.8325 74.8066 82.5054L78.6157 82.5054C78.5654 81.8035 78.3853 81.2551 78.0728 80.8657C77.7603 80.4763 77.3418 80.2803 76.8145 80.2803C76.1709 80.2803 75.6758 80.4895 75.3232 80.9106Z" clip-rule="evenodd" fill="#713ddd" fill-opacity="1.000000" fill-rule="evenodd"/>
				</g>
			</g>
			<g mask="url(#mask3_3648)">
				<g opacity="0.990000" style="mix-blend-mode:normal">
					<path id="Vector" d="M88.7 79.67C88.19 79.05 87.46 78.75 86.53 78.75C86.01 78.75 85.53 78.89 85.1 79.17C84.76 79.4 84.47 79.7 84.23 80.08L84.23 78.87L82.54 78.87L82.54 87.49L84.23 87.49L84.23 82.04C84.23 81.51 84.39 81.1 84.69 80.8C84.99 80.51 85.42 80.36 85.97 80.36C86.52 80.36 86.98 80.53 87.3 80.86C87.61 81.19 87.77 81.66 87.77 82.27L87.77 87.5L89.47 87.5L89.47 82.26C89.47 81.15 89.21 80.28 88.7 79.67L88.7 79.67Z" fill="#713ddd" fill-opacity="1.000000" fill-rule="nonzero"/>
				</g>
			</g>
		</g>
	</g>
</svg>
