<svg width="201.783691" height="71.000000" viewBox="0 0 201.784 71" fill="none" xmlns="http://www.w3.org/2000/svg" xmlns:xlink="http://www.w3.org/1999/xlink">
	<desc>
			Created with Pixso.
	</desc>
	<defs>
		<clipPath id="clip3_3608">
			<rect id="Ford" width="201.783569" height="71.000000" fill="white" fill-opacity="0"/>
		</clipPath>
	</defs>
	<g opacity="0.990000" style="mix-blend-mode:normal">
		<rect id="Ford" width="201.783569" height="71.000000" fill="#FFFFFF" fill-opacity="0"/>
		<g clip-path="url(#clip3_3608)">
			<mask id="mask3_3596" mask-type="alpha" maskUnits="userSpaceOnUse" x="0.000000" y="0.000000" width="201.783569" height="71.000000">
				<path id="Clip" d="M0 0L0 71L201.78 71L201.78 0L0 0Z" fill="#000000" fill-opacity="1.000000" fill-rule="nonzero"/>
			</mask>
			<g mask="url(#mask3_3596)">
				<g opacity="0.990000" style="mix-blend-mode:normal">
					<path id="Vector" d="M198.14 35.5C198.14 39.47 195.74 43.4 191.03 47.19C186.21 51.06 179.25 54.56 170.36 57.59C151.83 63.89 127.16 67.36 100.89 67.36C74.62 67.36 49.95 63.89 31.42 57.59C22.53 54.56 15.57 51.06 10.75 47.19C6.03 43.4 3.64 39.47 3.64 35.5C3.64 31.53 6.03 27.6 10.75 23.81C15.57 19.93 22.53 16.43 31.42 13.41C49.95 7.11 74.62 3.64 100.89 3.64C127.16 3.64 151.83 7.11 170.36 13.41C179.25 16.43 186.21 19.93 191.03 23.81C195.75 27.6 198.14 31.53 198.14 35.5Z" fill="transparent" fill-opacity="1.000000" fill-rule="nonzero"/>
				</g>
			</g>
			<g mask="url(#mask3_3596)">
				<g opacity="0.990000" style="mix-blend-mode:normal">
					<g opacity="0.990000" style="mix-blend-mode:normal">
						<path id="Vector" d="M161.011 25.6682C160.953 25.6409 160.887 25.6294 160.825 25.6294C159.842 25.6047 158.857 25.6096 157.872 25.6147C157.143 25.6184 156.414 25.6221 155.686 25.6138C155.282 25.6138 154.976 25.7341 154.793 26.103C151.787 30.7908 148.711 35.4436 145.654 40.1003C145.491 40.2986 145.165 40.2168 145.115 39.9607C144.609 37.5176 142.027 36.1973 139.708 36.166C135.091 36.1284 131.646 39.2493 128.317 42.2644C127.179 43.2947 126.056 44.3127 124.903 45.1882C123.994 45.9377 123.012 46.5864 121.924 47.064C116.685 49.3167 115.555 43.5532 118.778 40.4265C118.918 40.2947 119.151 40.415 119.151 40.6052C119.151 40.7451 119.151 40.8694 119.147 40.9937C118.961 43.0017 120.872 44.5356 122.86 43.9492C124.503 43.4678 125.416 42.3025 125.866 40.6985C126.496 38.4536 125.062 36.302 123.016 35.7893C119.905 35.0669 116.898 37.1797 115.143 39.5994C114.98 39.8362 114.615 39.7275 114.6 39.4402C114.6 39.3936 114.596 39.3508 114.588 39.3081C114.394 37.4321 114.118 35.7195 112.005 35.199C110.552 34.8728 109.038 35.168 107.725 35.8477C104.622 37.2925 102.746 40.1975 100.299 42.4656C100.237 42.1743 100.19 42.0073 100.171 41.8364C100.012 40.147 99.7944 38.5469 98.8662 37.0789C98.3999 36.3254 97.7861 36.1311 97.0137 36.5234C96.5317 36.7681 96.0581 37.0322 95.6074 37.3313C94.9009 37.7974 94.7842 38.1274 95.0093 38.9431C96.6562 44.5784 94.1201 52.447 87.7974 53.686C86.0107 53.9229 84.4883 53.0063 83.8862 51.3052C83.1909 49.1692 83.9019 46.8582 84.9971 44.9902C86.7368 41.9841 89.6807 40.1199 92.8228 38.8459C93.4946 38.5469 93.5532 38.4536 93.3042 37.7468C93.1919 37.4282 93.0752 37.1138 92.9629 36.7991C92.792 36.3291 92.4463 36.0613 91.9565 36.0339C91.5488 36.0107 91.1294 36.0029 90.7295 36.0728C84.4688 36.97 79.6411 41.8481 77.5244 47.6428C76.8101 49.5032 75.7261 51.0684 74.2192 52.3577C73.7104 52.7966 73.2134 53.2471 72.7202 53.7092C72.3823 54.0278 72.332 54.2686 72.5767 54.6492C72.8794 55.1191 73.2095 55.5735 73.5669 56.0046C73.7842 56.2688 73.9863 56.3191 74.2622 56.2183C75.5439 55.4958 76.6274 54.4473 77.6372 53.3831C77.9243 53.0684 78.4253 53.2471 78.4917 53.6548C79.6255 57.3794 83.5015 59.3718 87.2222 58.7544C91.813 58.1057 95.25 54.5093 97.7939 50.8857C100.419 47.3398 104.257 41.9102 108.308 40.1587C108.773 39.9529 109.302 39.8674 109.725 40.2869C110.133 40.6946 110.094 41.2229 109.931 41.7083C109.752 42.2366 109.542 42.7646 109.259 43.2385C106.374 48.1904 103.305 53.0374 100.311 57.9194C100.167 58.2495 100.381 58.4475 100.68 58.4514C101.534 58.4749 102.392 58.47 103.249 58.4648C103.807 58.4617 104.364 58.4585 104.921 58.4631C105.017 58.4631 105.104 58.4639 105.183 58.4646C105.977 58.4722 105.981 58.4722 106.571 57.5503C109.015 53.783 111.353 50.0042 113.85 46.2678C114.013 46.9282 114.028 47.4019 114.176 48.0312C114.84 50.8701 117.648 52.1868 120.328 51.449C121.633 51.0916 122.876 50.5945 124.002 49.8372C124.045 49.8098 124.091 49.7788 124.134 49.7517C124.41 49.5808 124.759 49.8098 124.713 50.1323C123.668 56.4785 128.484 60.9954 134.554 57.9504C135.852 57.3018 137.013 56.459 138.069 55.4648C138.337 55.2163 138.776 55.356 138.846 55.7173C138.869 55.8337 138.893 55.9463 138.916 56.0591C139.452 58.7854 142.104 59.7446 144.59 59.0845C150.21 57.6008 153.954 52.7422 157.706 48.637C158.059 48.2446 158.04 48.1011 157.671 47.7397C157.375 47.4524 157.069 47.1807 156.758 46.9126C156.339 46.5476 156.172 46.5476 155.76 46.9475C155.334 47.3401 154.769 47.915 154.116 48.5801C151.543 51.1995 147.6 55.2146 145.352 54.9639C144.501 54.8821 144 54.2336 144.179 53.4062C144.256 53.0452 144.384 52.6877 144.551 52.3577C144.827 51.8062 145.13 51.2703 145.456 50.7458C150.563 42.4307 155.923 34.2708 161.167 26.041C161.24 25.8623 161.189 25.7341 161.034 25.6643L161.011 25.6682ZM141.425 44.4736C141.728 43.8057 141.945 43.1143 142 42.3801L141.996 42.3801C142.12 40.7683 140.842 39.8867 139.359 40.0576C138.205 40.1858 137.25 40.7761 136.364 41.4792C133.451 43.8833 131 47.2466 130.69 51.1072C130.644 51.7556 130.733 52.3733 131 52.9636C131.432 53.989 132.698 54.2454 133.692 54.0161C137.277 53.0295 140.268 49.0837 141.716 45.8406C141.067 45.2854 141.063 45.2815 141.425 44.4736Z" clip-rule="evenodd" fill="#FFFFFF" fill-opacity="1.000000" fill-rule="evenodd"/>
					</g>
					<g opacity="0.990000" style="mix-blend-mode:normal">
						<path id="Vector" d="M79.7974 32.7871C81.04 32.6824 86.4893 32.1658 88.0503 32.0259C88.5166 31.9832 88.8545 32.1077 89.1689 32.4805C89.8018 33.2339 90.606 33.7854 91.4834 34.2205C91.6934 34.3252 91.9419 34.3875 92.1748 34.395C92.606 34.4106 93.041 34.0417 93.1689 33.6223C93.3037 33.1848 93.0132 32.9785 92.7217 32.7715L92.7109 32.7639C92.3613 32.5154 91.394 31.6919 91.208 31.4707C91.4644 31.3579 91.6353 31.292 91.7944 31.2104C93.7363 30.4375 95.0957 28.9385 95.313 26.8179C95.585 23.3923 91.7554 22.561 89.6079 24.7244C88.1045 26.1499 87.8408 27.7344 87.9146 29.719C87.8018 29.7617 87.7358 29.8123 87.666 29.8162C85.5762 29.9404 83.4868 30.0608 81.3975 30.1812C81.1099 30.1968 80.9233 29.886 81.0674 29.6375C83.5996 25.3264 87.5181 22.0369 91.4834 19.0852C92.5635 18.2812 93.9497 18.0015 95.2588 18.3201C96.8369 18.7095 98.4634 19.1567 100.122 19.6128C109.84 22.2847 120.647 25.2561 129.137 18.6772C129.607 18.2656 130.019 17.7607 130.368 17.2402C130.737 16.6887 130.9 16.0442 130.769 15.3684C130.632 14.6614 130.05 14.2419 129.339 14.3313C129.137 14.3547 128.935 14.4089 128.737 14.4517C120.612 16.2693 112.181 16.3508 103.951 15.2595C100.683 14.8706 97.4067 14.3188 94.1235 13.7659C85.3745 12.2927 76.5786 10.8115 67.7847 12.3816C62.5298 13.4924 57.0381 16.0129 54.3467 20.9067C51.562 25.7729 53.4146 32.6318 59.6714 32.9465C65.5435 33.199 70.0645 28.3208 72.1382 23.2603C72.3364 22.802 72.3984 22.2659 72.2549 21.7883C72.0337 21.0891 71.3188 20.9221 70.7944 21.4309C70.6509 21.5708 70.5381 21.7495 70.418 21.9165C68.6392 24.468 65.2754 27.2993 61.9897 26.9653C59.9663 26.7905 59.0225 24.9419 59.3218 23.0972C59.9238 19.6521 63.0659 17.3723 66.165 16.2461C73.5 13.6089 81.3721 15.2166 88.7822 16.7297C88.957 16.7654 89.1309 16.801 89.3047 16.8364C89.4521 16.8945 89.4717 17.0967 89.3398 17.1782C89.1924 17.2715 89.0444 17.3606 88.8892 17.4424C87.1763 18.3083 85.6426 19.4192 84.1899 20.6658C82.0342 22.5261 80.0029 24.4993 78.3213 26.8101C77.4863 27.9558 76.624 29.0859 75.7969 30.2395C75.5249 30.6201 75.1987 30.7949 74.7402 30.8726C73.1792 31.1443 71.6138 31.4202 70.0684 31.7734C68.3438 32.1658 66.7358 32.8572 65.2642 33.8513C64.8989 34.0999 64.5767 34.3835 64.4678 34.8223C64.2036 35.739 64.9146 36.5466 65.8853 36.2244C66.126 36.1428 66.3555 35.9954 66.5649 35.8477C68.2349 34.6553 70.0879 33.9912 72.1343 33.8552C72.3906 33.832 72.5576 34.1233 72.4102 34.333C72.0107 34.8645 71.5928 35.4297 71.1572 36.0193C66.3789 42.4829 59.4556 51.8484 51.4688 51.1616C47.3984 50.7266 45.8062 47.0991 46.6216 44.1628C47.3828 41.4287 49.7173 39.5566 52.1172 38.2556C52.894 37.8323 53.0415 37.1021 52.5522 36.3643C52.2959 35.9797 51.9307 35.77 51.4922 35.7078C51.1616 35.6611 50.8198 35.634 50.4897 35.665C49.1968 35.7778 48.0391 36.302 46.9321 36.939C42.2095 39.6577 39.8291 44.6716 40.8657 50.0002C42.2329 58.1602 52.1055 60.1138 58.6694 56.9368C67.3574 52.8977 73.4395 41.6384 78.3643 33.7231C78.7173 33.1328 79.1216 32.8455 79.8125 32.7871L79.7974 32.7871ZM93.1108 26.48C93.1421 25.2993 92.0854 25.3342 91.4097 25.8857C90.5669 26.6157 90.1904 27.5557 90.272 28.6704C90.3027 29.1365 90.4507 29.2412 90.8818 29.0742C92.0078 28.6587 92.936 27.6799 93.1108 26.48Z" clip-rule="evenodd" fill="#FFFFFF" fill-opacity="1.000000" fill-rule="evenodd"/>
					</g>
					<g opacity="0.990000" style="mix-blend-mode:normal">
						<path id="Vector" d="M199.508 27.7732C198.098 25.4272 196.012 23.1396 193.317 20.9727C188.163 16.8286 180.831 13.1233 171.533 9.96191C162.328 6.83154 151.624 4.37695 139.716 2.66431C127.417 0.893311 114.355 0 100.894 0C87.4326 0 74.3711 0.897217 62.0713 2.66431C50.1636 4.37695 39.4595 6.83154 30.2549 9.96191C20.9531 13.1233 13.6245 16.8286 8.4707 20.9727C6.54053 22.5222 4.92871 24.134 3.64697 25.7847C3.13818 26.4409 2.67969 27.1052 2.27979 27.7732C0.769043 30.282 0.00390625 32.8804 0.00390625 35.502C0.00390625 38.1235 0.769043 40.7217 2.27979 43.2307C2.68359 43.8987 3.13818 44.563 3.64697 45.2192C4.92871 46.8699 6.54053 48.4817 8.4707 50.0312C13.6245 54.1753 20.957 57.8804 30.2549 61.042C39.4595 64.1724 50.1636 66.6267 62.0713 68.3396C74.3711 70.1067 87.4326 71.0039 100.894 71.0039C114.355 71.0039 127.417 70.1067 139.716 68.3396C151.624 66.6267 162.328 64.1724 171.533 61.042C180.834 57.8804 188.163 54.1753 193.317 50.0312C196.012 47.864 198.098 45.5767 199.508 43.2307C201.019 40.7256 201.784 38.1235 201.784 35.502C201.784 32.8804 201.019 30.282 199.508 27.7732ZM170.356 57.593C179.253 54.5676 186.209 51.0684 191.033 47.1921C195.744 43.4016 198.137 39.4712 198.137 35.502C198.137 31.5327 195.748 27.6023 191.033 23.8118C186.209 19.9355 179.253 16.4363 170.356 13.4109C151.83 7.11133 127.156 3.64307 100.89 3.64307C74.6235 3.64307 49.9536 7.11133 31.4238 13.4109C22.5264 16.4363 15.5703 19.9355 10.7466 23.8118C6.03564 27.6023 3.64307 31.5327 3.64307 35.502C3.64307 39.4712 6.03174 43.4016 10.7466 47.1921C15.5703 51.0684 22.5264 54.5676 31.4238 57.593C49.9497 63.8926 74.6235 67.3608 100.89 67.3608C127.156 67.3608 151.826 63.8926 170.356 57.593Z" clip-rule="evenodd" fill="#FFFFFF" fill-opacity="1.000000" fill-rule="evenodd"/>
					</g>
				</g>
			</g>
		</g>
	</g>
</svg>
