<svg width="154.770508" height="90.129883" viewBox="0 0 154.771 90.1299" fill="none" xmlns="http://www.w3.org/2000/svg" xmlns:xlink="http://www.w3.org/1999/xlink">
	<desc>
			Created with Pixso.
	</desc>
	<defs>
		<clipPath id="clip3_3573">
			<rect id="Audi" width="154.770386" height="90.129997" fill="white" fill-opacity="0"/>
		</clipPath>
	</defs>
	<g opacity="0.990000" style="mix-blend-mode:normal">
		<rect id="Audi" width="154.770386" height="90.129997" fill="#FFFFFF" fill-opacity="0"/>
		<g clip-path="url(#clip3_3573)">
			<mask id="mask3_3548" mask-type="alpha" maskUnits="userSpaceOnUse" x="0.000000" y="0.000000" width="154.770386" height="90.129997">
				<path id="Clip" d="M0 0L0 90.12L154.77 90.12L154.77 0L0 0Z" fill="#000000" fill-opacity="1.000000" fill-rule="nonzero"/>
			</mask>
			<g mask="url(#mask3_3548)">
				<g opacity="0.990000" style="mix-blend-mode:normal">
					<path id="Vector" d="M-0.000244141 26.6252C-0.000244141 11.9216 11.9214 0 26.625 0C41.332 0 53.25 11.9216 53.25 26.6252C53.25 41.3286 41.3284 53.2502 26.625 53.2502C11.9214 53.2502 -0.000244141 41.3286 -0.000244141 26.6252ZM5.63623 26.6252C5.63623 38.219 15.0347 47.614 26.625 47.614C38.2188 47.614 47.6138 38.219 47.6138 26.6252C47.6138 15.0315 38.2188 5.63647 26.625 5.63647C15.0312 5.63647 5.63623 15.0315 5.63623 26.6252Z" clip-rule="evenodd" fill="#713ddd" fill-opacity="1.000000" fill-rule="evenodd"/>
				</g>
			</g>
			<g mask="url(#mask3_3548)">
				<g opacity="0.990000" style="mix-blend-mode:normal">
					<path id="Vector" d="M33.8386 26.6252C33.8386 11.9216 45.7568 0 60.4639 0C75.1709 0 87.0889 11.9216 87.0889 26.6252C87.0889 41.3286 75.1672 53.2502 60.4639 53.2502C45.7603 53.2502 33.8386 41.3286 33.8386 26.6252ZM39.4751 26.6252C39.4751 38.219 48.8735 47.614 60.4639 47.614C72.0576 47.614 81.4526 38.219 81.4526 26.6252C81.4526 15.0315 72.0576 5.63647 60.4639 5.63647C48.8701 5.63647 39.4751 15.0315 39.4751 26.6252Z" clip-rule="evenodd" fill="#713ddd" fill-opacity="1.000000" fill-rule="evenodd"/>
				</g>
			</g>
			<g mask="url(#mask3_3548)">
				<g opacity="0.990000" style="mix-blend-mode:normal">
					<path id="Vector" d="M67.6814 26.6252C67.6814 11.9216 79.5996 0 94.3066 0C109.01 0 120.932 11.9216 120.932 26.6252C120.932 41.3286 109.01 53.2502 94.3066 53.2502C79.603 53.2502 67.6814 41.3286 67.6814 26.6252ZM73.3179 26.6252C73.3179 38.219 82.7163 47.614 94.3066 47.614C105.9 47.614 115.295 38.219 115.295 26.6252C115.295 15.0315 105.9 5.63647 94.3066 5.63647C82.7129 5.63647 73.3179 15.0315 73.3179 26.6252Z" clip-rule="evenodd" fill="#713ddd" fill-opacity="1.000000" fill-rule="evenodd"/>
				</g>
			</g>
			<g mask="url(#mask3_3548)">
				<g opacity="0.990000" style="mix-blend-mode:normal">
					<path id="Vector" d="M101.52 26.6252C101.52 11.9216 113.438 0 128.146 0C142.849 0 154.771 11.9216 154.771 26.6252C154.771 41.3286 142.849 53.2502 128.146 53.2502C113.442 53.2502 101.52 41.3286 101.52 26.6252ZM107.157 26.6252C107.157 38.219 116.555 47.614 128.146 47.614C139.739 47.614 149.134 38.219 149.134 26.6252C149.134 15.0315 139.739 5.63647 128.146 5.63647C116.552 5.63647 107.157 15.0315 107.157 26.6252Z" clip-rule="evenodd" fill="#713ddd" fill-opacity="1.000000" fill-rule="evenodd"/>
				</g>
			</g>
			<g mask="url(#mask3_3548)">
				<g opacity="0.990000" style="mix-blend-mode:normal">
					<g opacity="0.990000" style="mix-blend-mode:normal">
						<path id="Vector" d="M109.25 63.42L114.86 63.42L114.86 89.63L109.25 89.63L109.25 63.42Z" fill="#713ddd" fill-opacity="1.000000" fill-rule="nonzero"/>
					</g>
					<g opacity="0.990000" style="mix-blend-mode:normal">
						<g opacity="0.990000" style="mix-blend-mode:normal">
							<path id="Vector" d="M122.25 63.32L127.55 63.32L127.55 68.28L122.25 68.28L122.25 63.32Z" fill="#713ddd" fill-opacity="1.000000" fill-rule="nonzero"/>
						</g>
						<g opacity="0.990000" style="mix-blend-mode:normal">
							<path id="Vector" d="M122.25 71.02L127.55 71.02L127.55 89.49L122.25 89.49L122.25 71.02Z" fill="#713ddd" fill-opacity="1.000000" fill-rule="nonzero"/>
						</g>
					</g>
					<g opacity="0.990000" style="mix-blend-mode:normal">
						<path id="Vector" d="M80.17 71L85.78 71L85.78 89.63L80.17 89.63L80.17 71Z" fill="#713ddd" fill-opacity="1.000000" fill-rule="nonzero"/>
					</g>
					<g opacity="0.990000" style="mix-blend-mode:normal">
						<path id="Vector" d="M69.52 89.63L63.91 81.22L63.91 71L69.52 71L69.52 89.63Z" fill="#713ddd" fill-opacity="1.000000" fill-rule="nonzero"/>
					</g>
					<g opacity="0.990000" style="mix-blend-mode:normal">
						<path id="Vector" d="M60.14 89.63L54.17 89.63L40.73 63.3L46.7 63.3L60.14 89.63Z" fill="#713ddd" fill-opacity="1.000000" fill-rule="nonzero"/>
					</g>
					<g opacity="0.990000" style="mix-blend-mode:normal">
						<path id="Vector" d="M27.21 89.63L33.17 89.63L46.61 63.3L40.65 63.3L27.21 89.63Z" fill="#713ddd" fill-opacity="1.000000" fill-rule="nonzero"/>
					</g>
					<g opacity="0.990000" style="mix-blend-mode:normal">
						<path id="Vector" d="M35.12 84.14L35.12 79.55L53.75 79.55L53.75 84.14L35.12 84.14Z" fill="#713ddd" fill-opacity="1.000000" fill-rule="nonzero"/>
					</g>
					<g opacity="0.990000" style="mix-blend-mode:normal">
						<path id="Vector" d="M69.44 82.94C69.44 82.94 71.45 88.67 80.34 84.14L80.34 87.67C80.34 87.67 64.29 96.28 63.97 81.22C63.64 66.16 66.9 81.88 67.08 81.85C67.27 81.82 69.44 82.94 69.44 82.94L69.44 82.94Z" fill="#713ddd" fill-opacity="1.000000" fill-rule="nonzero"/>
					</g>
					<g opacity="0.990000" style="mix-blend-mode:normal">
						<path id="Vector" d="M109.25 84.05C107.54 85.05 105.42 85.68 103.35 85.68C99.21 85.68 97.05 83.13 97.05 80.28C97.05 77.43 99.21 74.87 103.35 74.87C105.42 74.87 107.54 75.51 109.25 76.5L109.25 71.76C107.03 70.99 104.72 70.54 102.42 70.54C95.05 70.54 91.21 75.14 91.21 80.28C91.21 85.42 95.05 90.01 102.42 90.01C104.72 90.01 107.03 89.57 109.25 88.8L109.25 84.05Z" fill="#713ddd" fill-opacity="1.000000" fill-rule="nonzero"/>
					</g>
				</g>
			</g>
		</g>
	</g>
</svg>
