<?xml version="1.0" encoding="UTF-8"?>
<svg id="Layer_1" xmlns="http://www.w3.org/2000/svg" version="1.1" viewBox="0 0 396 396">
  <!-- Generator: Adobe Illustrator 29.2.1, SVG Export Plug-In . SVG Version: 2.1.0 Build 116)  -->
  <defs>
    <style>
      .st0 {
        fill: #05d384;
      }

      .st1 {
        fill: #01003d;
      }

      .st2 {
        fill: #3effc3;
      }

      .st3 {
        fill: #00a4ff;
      }
    </style>
  </defs>
  <path class="st2" d="M300.5,76c18.1-.9,20.1,26.5,2.2,28.1-19.2,1.6-20.4-27.1-2.2-28.1Z"/>
  <path class="st0" d="M106.4,306.7c-2.5,3.9-7,6.5-13.7,5.7-15.8-1.9-15.8-25.6,0-27.9,14.4-2.1,19.2,13.3,13.7,22.1"/>
  <path class="st3" d="M89.5,76c18.1-.9,20.1,26.5,2.2,28.1-19.2,1.6-20.4-27.1-2.2-28.1Z"/>
  <path class="st3" d="M300.5,288.9c18.1-.9,20.1,26.5,2.2,28.1s-20.4-27.1-2.2-28.1Z"/>
  <path class="st1" d="M197.9,123.7l4.2-14.7c9.2-23.4,35.9-42.5,61.6-40.2,15.8,1.4,16.6,23.2,4.3,26.9-10.1,3-16,.3-26.5,7.5-45.7,31.4,14.3,97.5,50,53.2,8.4-10.5,5.9-15.8,8.4-27.1,2.1-9.2,14.5-12.4,21.9-7.2s6.2,13.8,5.1,21.3c-3.9,28.4-26.5,49.4-54,55,30.8,3.2,58.9,36.6,54,67.7-1.5,9.5-14.7,13.2-22.1,7.7-7.2-5.3-4.6-14.7-7.1-22.8-8.2-26.7-43.2-34.2-62.3-13.6-17.5,18.9-10.3,50.8,13.9,59.5,9.2,3.3,25.2.2,26.9,13.5,2.6,20.7-20.8,18.2-34.1,13.9-22.7-7.2-40.7-28.6-43.8-52.2-4.3,27.3-27.6,52.1-55.8,54.8-12,1.2-25.7-1.4-22.5-16.9,2.8-13.6,17.7-9.3,28.2-13.8,26-11,30.3-45.2,8.2-62.8-19.9-15.8-50.1-6.7-57.7,17.3-2.3,7.4-.2,16.5-5.9,21.9-7.3,6.8-21,3.8-23.6-6.2-1.6-6.4.6-18.4,2.6-24.9,6.7-21.4,28.6-40.9,51.1-43-1.7-2.2-5.9-2.1-8.7-3-25.4-8.2-49.2-36.3-45.3-64.3,2-14.5,22.5-16.1,27.2-3.1,1.5,4.1.6,7.7,1.2,11.7,4.1,26.2,37.1,39.8,58.3,23.2,25.9-20.2,16.5-60.1-15.4-66.1-8.9-1.7-18.9,0-20.4-12.7-1.6-13.1,9-16.3,19.8-15.7,29.1,1.6,54.9,26.1,58.5,54.9ZM252,198.8c-.1-1.3-1.2-1.2-2.1-1.5-3.8-1.2-8-1.7-12.1-3.3-20.4-7.9-36.9-29.2-39.5-50.9-3.6,22.9-20,43.8-42,51.7-2.3.8-11.6,2.2-11.7,2.8-.5,1.8,1,1,2,1.2,28,6.6,46.3,25.7,51.7,54.1,3.5-26.8,26.4-51.3,53.7-54.1Z"/>
</svg>